<svg xmlns="http://www.w3.org/2000/svg" width="20" height="15.715" viewBox="0 0 20 15.715">
  <g id="Group_128" data-name="Group 128" transform="translate(0 -54.815)">
    <path id="Path_520" data-name="Path 520" d="M19.208,60.931a9.824,9.824,0,0,0-5.324-5.324,9.915,9.915,0,0,0-7.768,0A9.826,9.826,0,0,0,.792,60.931a9.977,9.977,0,0,0,.781,9.275.679.679,0,0,0,.6.324H17.824a.679.679,0,0,0,.6-.324,9.978,9.978,0,0,0,.782-9.275ZM8.99,56.662a1.428,1.428,0,1,1-.419,1.01A1.377,1.377,0,0,1,8.99,56.662ZM3.867,65.825a1.377,1.377,0,0,1-1.01.419,1.377,1.377,0,0,1-1.01-.419,1.428,1.428,0,0,1,0-2.02,1.376,1.376,0,0,1,1.01-.419,1.376,1.376,0,0,1,1.01.419,1.428,1.428,0,0,1,0,2.02Zm2.143-5a1.428,1.428,0,0,1-2.02,0A1.429,1.429,0,0,1,5,58.387a1.428,1.428,0,0,1,1.01,2.439Zm6.322.095-1.127,4.263a2.122,2.122,0,0,1,.8,1.016,2.147,2.147,0,0,1-.927,2.612,2.086,2.086,0,0,1-1.63.223,2.049,2.049,0,0,1-1.306-.993,2.137,2.137,0,0,1,.48-2.729,2.121,2.121,0,0,1,1.194-.486l1.127-4.263a.7.7,0,0,1,.335-.441.666.666,0,0,1,.536-.072.731.731,0,0,1,.513.871Zm1.657-.095a1.428,1.428,0,1,1,1.01.419A1.376,1.376,0,0,1,13.99,60.825Zm4.163,5a1.428,1.428,0,1,1,.418-1.01A1.377,1.377,0,0,1,18.153,65.825Z" transform="translate(0 0)" fill="#8dffd1"/>
  </g>
</svg>
