<svg xmlns="http://www.w3.org/2000/svg" width="17.704" height="14" viewBox="0 0 17.704 14">
  <g id="Group_120" data-name="Group 120" transform="translate(0 -14.644)">
    <g id="Group_117" data-name="Group 117" transform="translate(0 16.494)">
      <g id="Group_116" data-name="Group 116" transform="translate(0 0)">
        <path id="Path_511" data-name="Path 511" d="M14.406,30.864H8.019l-1.27-1.51a.217.217,0,0,0-.174-.078H1.421A1.432,1.432,0,0,0,0,30.708V40a1.432,1.432,0,0,0,1.43,1.43H14.406A1.432,1.432,0,0,0,15.836,40v-7.7A1.432,1.432,0,0,0,14.406,30.864Z" transform="translate(0 -29.276)" fill="#8dffd1"/>
      </g>
    </g>
    <g id="Group_119" data-name="Group 119" transform="translate(1.883 14.644)">
      <g id="Group_118" data-name="Group 118">
        <path id="Path_512" data-name="Path 512" d="M29.291,16.232H22.9l-1.27-1.51a.217.217,0,0,0-.173-.078H16.307a1.43,1.43,0,0,0-1.415,1.236h4.7a.831.831,0,0,1,.639.3l1.085,1.29h6.1a2.048,2.048,0,0,1,2.045,2.045V26.78a1.43,1.43,0,0,0,1.253-1.418v-7.7A1.432,1.432,0,0,0,29.291,16.232Z" transform="translate(-14.892 -14.644)" fill="#8dffd1"/>
      </g>
    </g>
  </g>
</svg>
