<svg xmlns="http://www.w3.org/2000/svg" width="419.683" height="193.329" viewBox="0 0 419.683 193.329">
  <g id="Group_82" data-name="Group 82" transform="translate(-276.491 -84.343)">
    <g id="Group_81" data-name="Group 81" transform="translate(318.917 93.397)">
      <g id="Group_80" data-name="Group 80">
        <rect id="Rectangle_695" data-name="Rectangle 695" width="23.544" height="83.802" transform="translate(0 68.169)" fill="#3dd598"/>
        <rect id="Rectangle_696" data-name="Rectangle 696" width="23.544" height="119.067" transform="translate(31.615 32.904)" fill="#0058ff"/>
        <rect id="Rectangle_697" data-name="Rectangle 697" width="23.544" height="56.767" transform="translate(63.23 95.204)" fill="#3dd598"/>
        <rect id="Rectangle_698" data-name="Rectangle 698" width="23.544" height="105.215" transform="translate(95.09 46.756)" fill="#0058ff"/>
        <rect id="Rectangle_699" data-name="Rectangle 699" width="23.544" height="135.28" transform="translate(126.704 16.691)" fill="#3dd598"/>
        <rect id="Rectangle_700" data-name="Rectangle 700" width="23.544" height="151.971" transform="translate(158.319)" fill="#0058ff"/>
        <rect id="Rectangle_701" data-name="Rectangle 701" width="23.544" height="76.508" transform="translate(189.199 75.463)" fill="#3dd598"/>
        <rect id="Rectangle_702" data-name="Rectangle 702" width="23.544" height="35.409" transform="translate(220.814 116.562)" fill="#0058ff"/>
        <rect id="Rectangle_703" data-name="Rectangle 703" width="23.544" height="83.449" transform="translate(252.429 68.522)" fill="#3dd598"/>
        <rect id="Rectangle_704" data-name="Rectangle 704" width="23.544" height="119.238" transform="translate(284.288 32.733)" fill="#0058ff"/>
        <rect id="Rectangle_705" data-name="Rectangle 705" width="23.544" height="103.38" transform="translate(315.903 48.591)" fill="#3dd598"/>
        <rect id="Rectangle_706" data-name="Rectangle 706" width="23.544" height="135.056" transform="translate(347.518 16.915)" fill="#0058ff"/>
      </g>
    </g>
    <text id="_100" data-name="100" transform="translate(276.491 98.343)" fill="#707070" font-size="12" font-family="Oswald-Regular, Oswald"><tspan x="0" y="0">100</tspan></text>
    <text id="_300" data-name="300" transform="translate(674.174 273.673)" fill="#171725" font-size="14" font-family="Oswald-Regular, Oswald"><tspan x="0" y="0">300</tspan></text>
    <text id="_0" data-name="0" transform="translate(293.646 262.875)" fill="#171725" font-size="12" font-family="Oswald-Regular, Oswald"><tspan x="0" y="0">0</tspan></text>
    <path id="Path_490" data-name="Path 490" d="M287.728,87.519V248.152H672.935" transform="translate(20.162 5.698)" fill="none" stroke="#707070" stroke-miterlimit="10" stroke-width="1.114"/>
  </g>
</svg>
