<svg xmlns="http://www.w3.org/2000/svg" width="16.5" height="18" viewBox="0 0 16.5 18">
  <g id="Group_126" data-name="Group 126" transform="translate(0.002)">
    <path id="Path_515" data-name="Path 515" d="M137.721,450.25a2.817,2.817,0,0,0,2.755-2.25h-5.511A2.817,2.817,0,0,0,137.721,450.25Z" transform="translate(-130.222 -432.25)" fill="#3dd598"/>
    <path id="Path_516" data-name="Path 516" d="M12.758,50.167h-.009a5.256,5.256,0,0,1-5.25-5.25A5.2,5.2,0,0,1,8,42.693c-.165-.016-.332-.025-.5-.025a5.25,5.25,0,0,0-5.25,5.25v2.091a5.029,5.029,0,0,1-1.791,3.85,1.312,1.312,0,0,0-.413,1.347,1.376,1.376,0,0,0,1.349.962H13.6a1.375,1.375,0,0,0,1.371-1.04,1.315,1.315,0,0,0-.448-1.284A4.991,4.991,0,0,1,12.758,50.167Z" transform="translate(0 -41.168)" fill="#8dffd1"/>
    <path id="Path_517" data-name="Path 517" d="M259.762,0a3.75,3.75,0,1,1-3.75,3.75A3.75,3.75,0,0,1,259.762,0" transform="translate(-247.013)" fill="#3dd598"/>
  </g>
</svg>
