<svg id="Group_67" data-name="Group 67" xmlns="http://www.w3.org/2000/svg" width="333.386" height="107.89" viewBox="0 0 333.386 107.89">
  <text id="_1000" data-name="1000" transform="translate(0 87.684)" fill="#617087" font-size="5" font-family="Montserrat-Light, Montserrat" font-weight="300"><tspan x="0" y="0">1000</tspan></text>
  <text id="_1500" data-name="1500" transform="translate(0 66.052)" fill="#617087" font-size="4" font-family="Montserrat-Light, Montserrat" font-weight="300"><tspan x="0" y="0">1500</tspan></text>
  <text id="_2000" data-name="2000" transform="translate(0 45.42)" fill="#617087" font-size="4" font-family="Montserrat-Light, Montserrat" font-weight="300"><tspan x="0" y="0">2000</tspan></text>
  <text id="_2500" data-name="2500" transform="translate(0 24.786)" fill="#617087" font-size="4" font-family="Montserrat-Light, Montserrat" font-weight="300"><tspan x="0" y="0">2500</tspan></text>
  <text id="_3000" data-name="3000" transform="translate(0 4)" fill="#617087" font-size="4" font-family="Montserrat-Light, Montserrat" font-weight="300"><tspan x="0" y="0">3000</tspan></text>
  <text id="_01" data-name="01" transform="translate(27.712 106.89)" fill="#617087" font-size="5" font-family="Montserrat-Light, Montserrat" font-weight="300"><tspan x="0" y="0">01</tspan></text>
  <text id="_02" data-name="02" transform="translate(70.127 105.89)" fill="#617087" font-size="4" font-family="Montserrat-Light, Montserrat" font-weight="300"><tspan x="0" y="0">02</tspan></text>
  <text id="_03" data-name="03" transform="translate(111.438 105.89)" fill="#617087" font-size="4" font-family="Montserrat-Light, Montserrat" font-weight="300"><tspan x="0" y="0">03</tspan></text>
  <text id="_04_" data-name="04 " transform="translate(152.935 106.89)" fill="#617087" font-size="5" font-family="Montserrat-Light, Montserrat" font-weight="300"><tspan x="0" y="0">04 </tspan></text>
  <text id="_05" data-name="05" transform="translate(194.082 105.89)" fill="#617087" font-size="4" font-family="Montserrat-Light, Montserrat" font-weight="300"><tspan x="0" y="0">05</tspan></text>
  <text id="_06" data-name="06" transform="translate(232.142 106.89)" fill="#617087" font-size="5" font-family="Montserrat-Light, Montserrat" font-weight="300"><tspan x="0" y="0">06</tspan></text>
  <text id="_07" data-name="07" transform="translate(278.661 106.89)" fill="#617087" font-size="5" font-family="Montserrat-Light, Montserrat" font-weight="300"><tspan x="0" y="0">07</tspan></text>
  <text id="_08" data-name="08" transform="translate(318.408 106.89)" fill="#617087" font-size="5" font-family="Montserrat-Light, Montserrat" font-weight="300"><tspan x="0" y="0">08</tspan></text>
  <line id="Line_1" data-name="Line 1" y1="3.182" transform="translate(30.879 99.532)" fill="none" stroke="#545f75" stroke-miterlimit="10" stroke-width="0.5"/>
  <line id="Line_2" data-name="Line 2" y1="3.182" transform="translate(73.369 99.532)" fill="none" stroke="#545f75" stroke-miterlimit="10" stroke-width="0.5"/>
  <line id="Line_3" data-name="Line 3" y1="3.182" transform="translate(114.66 99.532)" fill="none" stroke="#545f75" stroke-miterlimit="10" stroke-width="0.5"/>
  <line id="Line_4" data-name="Line 4" y1="3.182" transform="translate(155.951 99.532)" fill="none" stroke="#545f75" stroke-miterlimit="10" stroke-width="0.5"/>
  <line id="Line_5" data-name="Line 5" y1="3.182" transform="translate(197.242 99.532)" fill="none" stroke="#545f75" stroke-miterlimit="10" stroke-width="0.5"/>
  <line id="Line_6" data-name="Line 6" y1="3.182" transform="translate(235.246 99.532)" fill="none" stroke="#545f75" stroke-miterlimit="10" stroke-width="0.5"/>
  <line id="Line_7" data-name="Line 7" y1="3.182" transform="translate(281.827 99.532)" fill="none" stroke="#545f75" stroke-miterlimit="10" stroke-width="0.5"/>
  <line id="Line_8" data-name="Line 8" y1="3.182" transform="translate(321.574 99.532)" fill="none" stroke="#545f75" stroke-miterlimit="10" stroke-width="0.5"/>
  <line id="Line_9" data-name="Line 9" x2="312.234" transform="translate(21.152 24.86)" fill="none" stroke="#c6c9cc" stroke-miterlimit="10" stroke-width="0.5"/>
  <line id="Line_10" data-name="Line 10" x2="312.234" transform="translate(21.152 45.493)" fill="none" stroke="#c6c9cc" stroke-miterlimit="10" stroke-width="0.5"/>
  <line id="Line_11" data-name="Line 11" x2="312.234" transform="translate(21.152 4.074)" fill="none" stroke="#c6c9cc" stroke-miterlimit="10" stroke-width="0.5"/>
  <line id="Line_12" data-name="Line 12" x2="312.234" transform="translate(21.152 66.126)" fill="none" stroke="#c6c9cc" stroke-miterlimit="10" stroke-width="0.5"/>
  <line id="Line_13" data-name="Line 13" x2="312.234" transform="translate(21.152 86.759)" fill="none" stroke="#c6c9cc" stroke-miterlimit="10" stroke-width="0.5"/>
  <path id="Path_41" data-name="Path 41" d="M329.8,202.23a2.089,2.089,0,1,1,2.046-2.088A2.07,2.07,0,0,1,329.8,202.23Z" transform="translate(-176.469 -163.493)" fill="#fff"/>
  <g id="Group_59" data-name="Group 59" transform="translate(19.776 36.811)">
    <path id="Path_42" data-name="Path 42" d="M247.135,244.714h-9.309l.565-32.018H247.7Z" transform="translate(-237.826 -194.466)" fill="#56bfb7"/>
    <path id="Path_43" data-name="Path 43" d="M256.356,249.91h-9.309l.565-50.247h9.309Z" transform="translate(-234.15 -199.662)" fill="#4d2e7a"/>
  </g>
  <g id="Group_60" data-name="Group 60" transform="translate(62.066 38.497)">
    <rect id="Rectangle_71" data-name="Rectangle 71" width="9.502" height="34.067" transform="translate(0 14.495)" fill="#56bfb7"/>
    <rect id="Rectangle_72" data-name="Rectangle 72" width="9.502" height="48.562" transform="translate(13.163)" fill="#4d2e7a"/>
  </g>
  <g id="Group_61" data-name="Group 61" transform="translate(103.708 20.044)">
    <rect id="Rectangle_73" data-name="Rectangle 73" width="9.309" height="55.641" transform="translate(0 11.374)" fill="#56bfb7"/>
    <rect id="Rectangle_74" data-name="Rectangle 74" width="9.309" height="67.014" transform="translate(12.896)" fill="#4d2e7a"/>
  </g>
  <g id="Group_62" data-name="Group 62" transform="translate(145.114 5.41)">
    <rect id="Rectangle_75" data-name="Rectangle 75" width="9.309" height="73.844" transform="translate(0 7.805)" fill="#ea35c0"/>
    <path id="Path_44" data-name="Path 44" d="M0,0H9.309V81.649H0Z" transform="translate(12.896)" fill="#5ccffe"/>
  </g>
  <g id="Group_63" data-name="Group 63" transform="translate(186.519 39.508)">
    <rect id="Rectangle_77" data-name="Rectangle 77" width="9.309" height="38.381" transform="translate(0 9.17)" fill="#ea35c0"/>
    <rect id="Rectangle_78" data-name="Rectangle 78" width="9.309" height="47.551" transform="translate(12.896)" fill="#5ccffe"/>
  </g>
  <g id="Group_64" data-name="Group 64" transform="translate(224.629 16.863)">
    <rect id="Rectangle_79" data-name="Rectangle 79" width="9.309" height="70.196" fill="#ea35c0"/>
    <rect id="Rectangle_80" data-name="Rectangle 80" width="9.309" height="48.562" transform="translate(12.896 21.634)" fill="#5ccffe"/>
  </g>
  <g id="Group_65" data-name="Group 65" transform="translate(271.008 4.773)">
    <rect id="Rectangle_81" data-name="Rectangle 81" width="9.309" height="82.286" fill="#56bfb7"/>
    <rect id="Rectangle_82" data-name="Rectangle 82" width="9.309" height="73.17" transform="translate(12.896 9.116)" fill="#4d2e7a"/>
  </g>
  <g id="Group_66" data-name="Group 66" transform="translate(310.755 6.682)">
    <rect id="Rectangle_83" data-name="Rectangle 83" width="9.309" height="51.743" transform="translate(0 28.633)" fill="#56bfb7"/>
    <rect id="Rectangle_84" data-name="Rectangle 84" width="9.309" height="80.377" transform="translate(12.896)" fill="#4d2e7a"/>
  </g>
  <line id="Line_37" data-name="Line 37" x2="312.234" transform="translate(21.152 66.126)" fill="none" stroke="#c6c9cc" stroke-miterlimit="10" stroke-width="0.5"/>
  <g id="Group_130" data-name="Group 130" transform="translate(145.114 5.41)">
    <rect id="Rectangle_75-2" data-name="Rectangle 75" width="9.309" height="73.844" transform="translate(0 7.805)" fill="#56bfb7"/>
    <path id="Path_44-2" data-name="Path 44" d="M0,0H9.309V81.649H0Z" transform="translate(12.896)" fill="#4d2e7a"/>
  </g>
  <g id="Group_131" data-name="Group 131" transform="translate(186.519 39.508)">
    <rect id="Rectangle_77-2" data-name="Rectangle 77" width="9.309" height="38.381" transform="translate(0 9.17)" fill="#56bfb7"/>
    <rect id="Rectangle_78-2" data-name="Rectangle 78" width="9.309" height="47.551" transform="translate(12.896)" fill="#4d2e7a"/>
  </g>
  <g id="Group_132" data-name="Group 132" transform="translate(224.629 16.863)">
    <rect id="Rectangle_79-2" data-name="Rectangle 79" width="9.309" height="70.196" fill="#56bfb7"/>
    <path id="Path_578" data-name="Path 578" d="M0,0H9.309V48.562H0Z" transform="translate(12.896 21.634)" fill="#4d2e7a"/>
  </g>
</svg>
