<svg xmlns="http://www.w3.org/2000/svg" width="65" height="65" viewBox="0 0 65 65">
  <g id="Group_182" data-name="Group 182" transform="translate(-214 -13)">
    <circle id="Ellipse_18" data-name="Ellipse 18" cx="32.5" cy="32.5" r="32.5" transform="translate(214 13)" fill="#fff"/>
    <g id="Group_134" data-name="Group 134" transform="translate(211.955 20.122)">
      <path id="Path_560" data-name="Path 560" d="M219.038,282.368H217.01v-4.935a.615.615,0,0,0-1.181-.224l-3.223,8.187a.621.621,0,0,0,.57.836h1.836v4.935a.616.616,0,0,0,1.177.236l3.415-8.187A.618.618,0,0,0,219.038,282.368Zm-2.8,5.742v-2.49a.612.612,0,0,0-.612-.612h-1.549l1.712-4.349v2.321a.612.612,0,0,0,.612.612h1.722Z" transform="translate(-181.744 -254.254)" fill="#121212"/>
      <path id="Path_561" data-name="Path 561" d="M23.924,301.731a3.821,3.821,0,0,0,.458-1.819v-2.745a3.849,3.849,0,0,0-7.7,0v2.744a3.821,3.821,0,0,0,.458,1.819,4.589,4.589,0,0,0-2.46,4.077.612.612,0,1,0,1.224,0,3.37,3.37,0,0,1,2-3.088,3.864,3.864,0,0,0,5.254,0,3.37,3.37,0,0,1,2,3.088v3.14a1.1,1.1,0,0,1-1.337.988v-2a.612.612,0,0,0-1.224,0v2H18.466v-2a.612.612,0,0,0-1.224,0v2a1.091,1.091,0,0,1-1.337-.988.612.612,0,0,0-1.224,0,2.214,2.214,0,0,0,2.212,2.212h7.28a2.214,2.214,0,0,0,2.212-2.212v-3.14A4.589,4.589,0,0,0,23.924,301.731Zm-3.4-7.183h.01a2.624,2.624,0,0,1,2.575,2.139l-5.206,1.1v-.617A2.623,2.623,0,0,1,20.527,294.548Zm0,7.985a2.623,2.623,0,0,1-2.62-2.62v-.876l5.251-1.109v1.984a2.623,2.623,0,0,1-2.62,2.62Z" transform="translate(0 -269.401)" fill="#121212"/>
      <path id="Path_562" data-name="Path 562" d="M195.959,15.6a.612.612,0,0,0-1.224,0,1.1,1.1,0,0,1-1.337.988v-2a.612.612,0,0,0-1.224,0v2h-4.133v-2a.612.612,0,0,0-1.224,0v2a1.091,1.091,0,0,1-1.337-.988v-3.14a3.37,3.37,0,0,1,2-3.088,3.864,3.864,0,0,0,5.254,0,3.37,3.37,0,0,1,2,3.088.612.612,0,0,0,1.224,0,4.589,4.589,0,0,0-2.46-4.077,3.819,3.819,0,0,0,.458-1.819c0-.005,0-2.745,0-2.749a3.849,3.849,0,0,0-7.7,0c-.008.916,0,1.833,0,2.749a3.82,3.82,0,0,0,.458,1.819,4.589,4.589,0,0,0-2.46,4.077V15.6a2.214,2.214,0,0,0,2.212,2.212h7.28a2.214,2.214,0,0,0,2.212-2.212ZM190.1,9.188a2.623,2.623,0,0,1-2.62-2.62V5.692l5.251-1.109V6.568a2.623,2.623,0,0,1-2.62,2.62h-.01Zm.005-7.985a2.63,2.63,0,0,1,2.58,2.139l-5.206,1.1V3.829A2.628,2.628,0,0,1,190.107,1.2Z" transform="translate(-155.744 0)" fill="#121212"/>
      <path id="Path_563" data-name="Path 563" d="M317.684,361.506a.612.612,0,0,0-.612-.612h-2.188a.612.612,0,0,0,0,1.224h2.188A.612.612,0,0,0,317.684,361.506Z" transform="translate(-275.16 -331.46)" fill="#121212"/>
      <path id="Path_564" data-name="Path 564" d="M158.792,360.894H156.6a.612.612,0,0,0,0,1.224h2.188A.612.612,0,0,0,158.792,360.894Z" transform="translate(-129.789 -331.46)" fill="#121212"/>
      <path id="Path_565" data-name="Path 565" d="M85.655,193.022a.643.643,0,0,0,.791-.35,12.1,12.1,0,0,1,4.861-5.869.612.612,0,0,0-.648-1.039A13.331,13.331,0,0,0,85.3,192.23a.612.612,0,0,0,.35.791Z" transform="translate(-64.826 -170.528)" fill="#121212"/>
      <path id="Path_566" data-name="Path 566" d="M349.383,186.8a12.1,12.1,0,0,1,4.861,5.869.643.643,0,0,0,.791.35.612.612,0,0,0,.35-.791,13.332,13.332,0,0,0-5.355-6.467.612.612,0,1,0-.648,1.039Z" transform="translate(-307.139 -170.527)" fill="#121212"/>
      <path id="Path_567" data-name="Path 567" d="M363.071,301.731a3.82,3.82,0,0,0,.458-1.819v-2.745a3.849,3.849,0,0,0-7.7,0v2.744a3.821,3.821,0,0,0,.459,1.82,4.615,4.615,0,0,0-2.461,4.076v3.14a2.214,2.214,0,0,0,2.212,2.212h7.28a2.214,2.214,0,0,0,2.212-2.212v-3.14a4.589,4.589,0,0,0-2.46-4.077Zm-6.017-1.819v-.876l5.251-1.109v1.984a2.608,2.608,0,0,1-.617,1.687l-.01.012a2.615,2.615,0,0,1-1.993.921h-.01a2.623,2.623,0,0,1-2.62-2.62Zm2.62-5.365h.01a2.624,2.624,0,0,1,2.575,2.139l-5.206,1.1v-.617A2.624,2.624,0,0,1,359.674,294.548Zm4.633,14.4a1.1,1.1,0,0,1-1.337.988v-2a.612.612,0,0,0-1.224,0v2h-4.133v-2a.612.612,0,0,0-1.224,0v2a1.091,1.091,0,0,1-1.337-.988v-3.14a3.389,3.389,0,0,1,2-3.088,3.864,3.864,0,0,0,5.254,0,3.369,3.369,0,0,1,2,3.088v3.14Z" transform="translate(-311.486 -269.401)" fill="#121212"/>
    </g>
  </g>
</svg>
