<?xml version="1.0" encoding="utf-8"?>
<!-- Generator: Adobe Illustrator 25.2.0, SVG Export Plug-In . SVG Version: 6.00 Build 0)  -->
<svg version="1.1" id="Capa_1" xmlns="http://www.w3.org/2000/svg" xmlns:xlink="http://www.w3.org/1999/xlink" x="0px" y="0px"
	 viewBox="0 0 58 36.6" style="enable-background:new 0 0 58 36.6;" xml:space="preserve">
<style type="text/css">
	.st0{fill:#FFFFFF;}
</style>
<path class="st0" d="M58,0H0v0.8v35v0.8h58v-0.8v-35V0z M16,5.7c3.1,0,5.6,2.5,5.6,5.6s-2.5,5.6-5.6,5.6s-5.6-2.5-5.6-5.6l0,0
	C10.4,8.2,12.9,5.7,16,5.7z M52.7,24.4c-0.4,0.4-1,0.4-1.4,0.1L40.1,14.1l-9.2,10.1l4.8,4.8c0.4,0.4,0.3,1.1-0.1,1.4
	c-0.4,0.3-0.9,0.3-1.3,0L24,20.1L7.7,34.5c-0.4,0.4-1,0.4-1.4,0s-0.4-1,0-1.4c0,0,0,0,0.1-0.1l17-15c0.4-0.4,1-0.4,1.4,0l4.7,4.7
	L39.3,12c0.2-0.2,0.5-0.3,0.8-0.3s0.5,0.1,0.7,0.3l12,11C53.1,23.3,53.1,24,52.7,24.4L52.7,24.4z"/>
</svg>
