<svg xmlns="http://www.w3.org/2000/svg" width="19.8" height="18" viewBox="0 0 19.8 18">
  <g id="Group_127" data-name="Group 127" transform="translate(0)">
    <path id="Path_518" data-name="Path 518" d="M3.75,11.25a2.25,2.25,0,0,0,0-4.5H0V2.063A2.064,2.064,0,0,1,2.062,0H9.937A2.064,2.064,0,0,1,12,2.063V15.937A2.064,2.064,0,0,1,9.937,18H2.062A2.064,2.064,0,0,1,0,15.937V11.25Z" transform="translate(7.8 0)" fill="#8dffd1"/>
    <path id="Path_519" data-name="Path 519" d="M217.37,156.773a.751.751,0,0,0,.463-.693v-2.25h5.25a.75.75,0,1,0,0-1.5h-5.25v-2.25a.75.75,0,0,0-1.28-.53l-3,3a.749.749,0,0,0,0,1.061l3,3A.75.75,0,0,0,217.37,156.773Z" transform="translate(-213.333 -144.08)" fill="#8dffd1"/>
  </g>
</svg>
