<svg xmlns="http://www.w3.org/2000/svg" width="165.085" height="143.183" viewBox="0 0 165.085 143.183">
  <g id="Group_78" data-name="Group 78" transform="translate(-42.216 -202.852)">
    <text id="_100_" data-name="100%" transform="translate(116.513 282.014)" fill="#171725" font-size="19.844" font-family="SegoeUI, Segoe UI"><tspan x="-24.165" y="0">100%</tspan></text>
    <path id="Path_468" data-name="Path 468" d="M167.1,242.01l8.019-4.63a71.657,71.657,0,0,0-59.811-34.528v9.259A62.39,62.39,0,0,1,167.1,242.01Z" fill="#f99600"/>
    <path id="Path_469" data-name="Path 469" d="M115.306,336.778v9.257a71.655,71.655,0,0,0,59.811-34.527l-8.02-4.63A62.389,62.389,0,0,1,115.306,336.778Z" fill="#ea35c0"/>
    <path id="Path_470" data-name="Path 470" d="M198.043,274.444a61.975,61.975,0,0,1-7.653,29.9l8.014,4.627a71.455,71.455,0,0,0,0-69.06l-8.014,4.627A61.986,61.986,0,0,1,198.043,274.444Z" fill="#0058ff"/>
    <path id="Path_471" data-name="Path 471" d="M51.474,274.444a61.986,61.986,0,0,1,7.653-29.9l-8.014-4.627a71.455,71.455,0,0,0,0,69.06l8.014-4.627A61.986,61.986,0,0,1,51.474,274.444Z" fill="#3dd598"/>
    <path id="Path_472" data-name="Path 472" d="M112.383,212.111v-9.259A71.655,71.655,0,0,0,52.572,237.38l8.02,4.63A62.388,62.388,0,0,1,112.383,212.111Z" fill="#ffc700"/>
    <path id="Path_473" data-name="Path 473" d="M60.592,306.878l-8.02,4.63a71.655,71.655,0,0,0,59.811,34.527v-9.257A62.39,62.39,0,0,1,60.592,306.878Z" fill="#5ccffe"/>
    <path id="Path_474" data-name="Path 474" d="M63.656,274.444a49.876,49.876,0,0,1,6.02-23.813L61.658,246a59.343,59.343,0,0,0,0,56.884l8.018-4.629A49.876,49.876,0,0,1,63.656,274.444Z" fill="#3dd598"/>
    <path id="Path_475" data-name="Path 475" d="M112.383,224.292v-9.258a59.464,59.464,0,0,0-49.258,28.439l8.022,4.632A50.2,50.2,0,0,1,112.383,224.292Z" fill="#ffc700"/>
    <path id="Path_476" data-name="Path 476" d="M156.542,248.1l8.022-4.632a59.463,59.463,0,0,0-49.258-28.439v9.258A50.2,50.2,0,0,1,156.542,248.1Z" fill="#f99600"/>
    <path id="Path_477" data-name="Path 477" d="M185.861,274.444a49.876,49.876,0,0,1-6.02,23.813l8.018,4.629a59.335,59.335,0,0,0,0-56.884l-8.018,4.629A49.876,49.876,0,0,1,185.861,274.444Z" fill="#0058ff"/>
    <path id="Path_478" data-name="Path 478" d="M71.147,300.784l-8.022,4.632a59.466,59.466,0,0,0,49.258,28.438V324.6A50.2,50.2,0,0,1,71.147,300.784Z" fill="#5ccffe"/>
    <path id="Path_479" data-name="Path 479" d="M115.306,324.6v9.258a59.467,59.467,0,0,0,49.258-28.438l-8.022-4.632A50.2,50.2,0,0,1,115.306,324.6Z" fill="#ea35c0"/>
    <path id="Path_480" data-name="Path 480" d="M115.306,312.414v9.257a47.272,47.272,0,0,0,38.7-22.35l-8.022-4.631A38.011,38.011,0,0,1,115.306,312.414Z" fill="#ea35c0"/>
    <path id="Path_481" data-name="Path 481" d="M173.679,274.444a37.764,37.764,0,0,1-4.4,17.717l8.024,4.633a47.17,47.17,0,0,0,0-44.7l-8.025,4.633A37.753,37.753,0,0,1,173.679,274.444Z" fill="#0058ff"/>
    <path id="Path_482" data-name="Path 482" d="M81.7,294.69l-8.022,4.631a47.268,47.268,0,0,0,38.7,22.35v-9.257A38.008,38.008,0,0,1,81.7,294.69Z" fill="#57b8ff"/>
    <path id="Path_483" data-name="Path 483" d="M75.838,274.444a37.765,37.765,0,0,1,4.4-17.717l-8.025-4.633a47.17,47.17,0,0,0,0,44.7l8.024-4.633A37.776,37.776,0,0,1,75.838,274.444Z" fill="#3dd598"/>
    <path id="Path_484" data-name="Path 484" d="M145.987,254.2l8.022-4.632a47.272,47.272,0,0,0-38.7-22.351v9.258A38.014,38.014,0,0,1,145.987,254.2Z" fill="#f99600"/>
    <path id="Path_485" data-name="Path 485" d="M112.383,236.474v-9.258a47.272,47.272,0,0,0-38.7,22.351L81.7,254.2A38.011,38.011,0,0,1,112.383,236.474Z" fill="#ffc700"/>
    <path id="Path_486" data-name="Path 486" d="M161.5,274.444a25.652,25.652,0,0,1-2.773,11.621l8.025,4.633a34.97,34.97,0,0,0,0-32.508l-8.025,4.633A25.652,25.652,0,0,1,161.5,274.444Z" fill="#0058ff"/>
  </g>
</svg>
