<svg id="Group_67" data-name="Group 67" xmlns="http://www.w3.org/2000/svg" width="813.203" height="259.532" viewBox="0 0 813.203 259.532">
  <text id="_1000" data-name="1000" transform="translate(0 210.686)" fill="#617087" font-size="9" font-family="Montserrat-Light, Montserrat" font-weight="300"><tspan x="0" y="0">1000</tspan></text>
  <text id="_1500" data-name="1500" transform="translate(0 157.358)" fill="#617087" font-size="6" font-family="Montserrat-Light, Montserrat" font-weight="300"><tspan x="0" y="0">1500</tspan></text>
  <text id="_2000" data-name="2000" transform="translate(0 107.032)" fill="#617087" font-size="6" font-family="Montserrat-Light, Montserrat" font-weight="300"><tspan x="0" y="0">2000</tspan></text>
  <text id="_2500" data-name="2500" transform="translate(0 56.703)" fill="#617087" font-size="6" font-family="Montserrat-Light, Montserrat" font-weight="300"><tspan x="0" y="0">2500</tspan></text>
  <text id="_3000" data-name="3000" transform="translate(0 6)" fill="#617087" font-size="6" font-family="Montserrat-Light, Montserrat" font-weight="300"><tspan x="0" y="0">3000</tspan></text>
  <text id="_01" data-name="01" transform="translate(67.596 257.532)" fill="#617087" font-size="9" font-family="Montserrat-Light, Montserrat" font-weight="300"><tspan x="0" y="0">01</tspan></text>
  <text id="_02" data-name="02" transform="translate(171.056 254.532)" fill="#617087" font-size="6" font-family="Montserrat-Light, Montserrat" font-weight="300"><tspan x="0" y="0">02</tspan></text>
  <text id="_03" data-name="03" transform="translate(271.823 254.532)" fill="#617087" font-size="6" font-family="Montserrat-Light, Montserrat" font-weight="300"><tspan x="0" y="0">03</tspan></text>
  <text id="_04_" data-name="04 " transform="translate(373.044 257.532)" fill="#617087" font-size="9" font-family="Montserrat-Light, Montserrat" font-weight="300"><tspan x="0" y="0">04 </tspan></text>
  <text id="_05" data-name="05" transform="translate(473.41 254.532)" fill="#617087" font-size="6" font-family="Montserrat-Light, Montserrat" font-weight="300"><tspan x="0" y="0">05</tspan></text>
  <text id="_06" data-name="06" transform="translate(566.247 257.532)" fill="#617087" font-size="9" font-family="Montserrat-Light, Montserrat" font-weight="300"><tspan x="0" y="0">06</tspan></text>
  <text id="_07" data-name="07" transform="translate(679.718 257.532)" fill="#617087" font-size="9" font-family="Montserrat-Light, Montserrat" font-weight="300"><tspan x="0" y="0">07</tspan></text>
  <text id="_08" data-name="08" transform="translate(776.67 257.532)" fill="#617087" font-size="9" font-family="Montserrat-Light, Montserrat" font-weight="300"><tspan x="0" y="0">08</tspan></text>
  <line id="Line_1" data-name="Line 1" y1="7.761" transform="translate(75.32 242.78)" fill="none" stroke="#545f75" stroke-miterlimit="10" stroke-width="0.5"/>
  <line id="Line_2" data-name="Line 2" y1="7.761" transform="translate(178.964 242.78)" fill="none" stroke="#545f75" stroke-miterlimit="10" stroke-width="0.5"/>
  <line id="Line_3" data-name="Line 3" y1="7.761" transform="translate(279.682 242.78)" fill="none" stroke="#545f75" stroke-miterlimit="10" stroke-width="0.5"/>
  <line id="Line_4" data-name="Line 4" y1="7.761" transform="translate(380.4 242.78)" fill="none" stroke="#545f75" stroke-miterlimit="10" stroke-width="0.5"/>
  <line id="Line_5" data-name="Line 5" y1="7.761" transform="translate(481.118 242.78)" fill="none" stroke="#545f75" stroke-miterlimit="10" stroke-width="0.5"/>
  <line id="Line_6" data-name="Line 6" y1="7.761" transform="translate(573.818 242.78)" fill="none" stroke="#545f75" stroke-miterlimit="10" stroke-width="0.5"/>
  <line id="Line_7" data-name="Line 7" y1="7.761" transform="translate(687.441 242.78)" fill="none" stroke="#545f75" stroke-miterlimit="10" stroke-width="0.5"/>
  <line id="Line_8" data-name="Line 8" y1="7.761" transform="translate(784.392 242.78)" fill="none" stroke="#545f75" stroke-miterlimit="10" stroke-width="0.5"/>
  <line id="Line_9" data-name="Line 9" x2="761.608" transform="translate(51.595 60.639)" fill="none" stroke="#c6c9cc" stroke-miterlimit="10" stroke-width="0.5"/>
  <line id="Line_10" data-name="Line 10" x2="761.608" transform="translate(51.595 110.967)" fill="none" stroke="#c6c9cc" stroke-miterlimit="10" stroke-width="0.5"/>
  <line id="Line_11" data-name="Line 11" x2="761.608" transform="translate(51.595 9.936)" fill="none" stroke="#c6c9cc" stroke-miterlimit="10" stroke-width="0.5"/>
  <line id="Line_12" data-name="Line 12" x2="761.608" transform="translate(51.595 161.296)" fill="none" stroke="#c6c9cc" stroke-miterlimit="10" stroke-width="0.5"/>
  <line id="Line_13" data-name="Line 13" x2="761.608" transform="translate(51.595 211.624)" fill="none" stroke="#c6c9cc" stroke-miterlimit="10" stroke-width="0.5"/>
  <path id="Path_41" data-name="Path 41" d="M332.746,208.24a5.095,5.095,0,1,1,4.991-5.094A5.049,5.049,0,0,1,332.746,208.24Z" transform="translate(41.266 -113.753)" fill="#fff"/>
  <g id="Group_59" data-name="Group 59" transform="translate(48.239 89.791)">
    <path id="Path_42" data-name="Path 42" d="M260.534,290.8H237.826l1.378-78.1h22.707Z" transform="translate(-237.826 -168.23)" fill="#3dd598"/>
    <path id="Path_43" data-name="Path 43" d="M269.754,322.227H247.047l1.378-122.565h22.707Z" transform="translate(-215.589 -199.662)" fill="#0058ff"/>
  </g>
  <g id="Group_60" data-name="Group 60" transform="translate(151.394 93.903)">
    <rect id="Rectangle_71" data-name="Rectangle 71" width="23.177" height="83.097" transform="translate(0 35.356)" fill="#3dd598"/>
    <rect id="Rectangle_72" data-name="Rectangle 72" width="23.177" height="118.453" transform="translate(32.109)" fill="#0058ff"/>
  </g>
  <g id="Group_61" data-name="Group 61" transform="translate(252.966 48.893)">
    <rect id="Rectangle_73" data-name="Rectangle 73" width="22.707" height="135.721" transform="translate(0 27.743)" fill="#3dd598"/>
    <rect id="Rectangle_74" data-name="Rectangle 74" width="22.708" height="163.463" transform="translate(31.457)" fill="#0058ff"/>
  </g>
  <g id="Group_62" data-name="Group 62" transform="translate(353.965 13.195)">
    <rect id="Rectangle_75" data-name="Rectangle 75" width="22.707" height="180.122" transform="translate(0 19.039)" fill="#ea35c0"/>
    <path id="Path_44" data-name="Path 44" d="M0,0H22.707V199.161H0Z" transform="translate(31.457)" fill="#5ccffe"/>
  </g>
  <g id="Group_63" data-name="Group 63" transform="translate(454.963 96.369)">
    <rect id="Rectangle_77" data-name="Rectangle 77" width="22.707" height="93.62" transform="translate(0 22.367)" fill="#ea35c0"/>
    <rect id="Rectangle_78" data-name="Rectangle 78" width="22.707" height="115.987" transform="translate(31.457)" fill="#5ccffe"/>
  </g>
  <g id="Group_64" data-name="Group 64" transform="translate(547.921 41.132)">
    <rect id="Rectangle_79" data-name="Rectangle 79" width="22.707" height="171.224" fill="#ea35c0"/>
    <rect id="Rectangle_80" data-name="Rectangle 80" width="22.707" height="118.453" transform="translate(31.457 52.77)" fill="#5ccffe"/>
  </g>
  <g id="Group_65" data-name="Group 65" transform="translate(661.049 11.643)">
    <rect id="Rectangle_81" data-name="Rectangle 81" width="22.707" height="200.713" fill="#3dd598"/>
    <rect id="Rectangle_82" data-name="Rectangle 82" width="22.707" height="178.477" transform="translate(31.457 22.236)" fill="#0058ff"/>
  </g>
  <g id="Group_66" data-name="Group 66" transform="translate(758.001 16.299)">
    <rect id="Rectangle_83" data-name="Rectangle 83" width="22.707" height="126.214" transform="translate(0 69.843)" fill="#3dd598"/>
    <rect id="Rectangle_84" data-name="Rectangle 84" width="22.707" height="196.057" transform="translate(31.457)" fill="#0058ff"/>
  </g>
  <line id="Line_37" data-name="Line 37" x2="761.608" transform="translate(51.595 161.296)" fill="none" stroke="#c6c9cc" stroke-miterlimit="10" stroke-width="0.5"/>
  <g id="Group_130" data-name="Group 130" transform="translate(353.965 13.195)">
    <rect id="Rectangle_75-2" data-name="Rectangle 75" width="22.707" height="180.122" transform="translate(0 19.039)" fill="#3dd598"/>
    <path id="Path_44-2" data-name="Path 44" d="M0,0H22.707V199.161H0Z" transform="translate(31.457)" fill="#0058ff"/>
  </g>
  <g id="Group_131" data-name="Group 131" transform="translate(454.963 96.369)">
    <rect id="Rectangle_77-2" data-name="Rectangle 77" width="22.707" height="93.62" transform="translate(0 22.367)" fill="#3dd598"/>
    <rect id="Rectangle_78-2" data-name="Rectangle 78" width="22.707" height="115.987" transform="translate(31.457)" fill="#0058ff"/>
  </g>
  <g id="Group_132" data-name="Group 132" transform="translate(547.921 41.132)">
    <rect id="Rectangle_79-2" data-name="Rectangle 79" width="22.707" height="171.224" fill="#3dd598"/>
    <rect id="Rectangle_80-2" data-name="Rectangle 80" width="22.707" height="118.453" transform="translate(31.457 52.77)" fill="#0058ff"/>
  </g>
</svg>
