<svg xmlns="http://www.w3.org/2000/svg" width="15" height="20" viewBox="0 0 15 20">
  <g id="Group_125" data-name="Group 125" transform="translate(-17.5)">
    <g id="Group_122" data-name="Group 122" transform="translate(27.5)">
      <g id="Group_121" data-name="Group 121" transform="translate(0)">
        <path id="Path_513" data-name="Path 513" d="M87.5,0V5h5Z" transform="translate(-87.5)" fill="#8dffd1"/>
      </g>
    </g>
    <g id="Group_124" data-name="Group 124" transform="translate(17.5)">
      <g id="Group_123" data-name="Group 123" transform="translate(0)">
        <path id="Path_514" data-name="Path 514" d="M27.5,6.25A1.252,1.252,0,0,1,26.25,5V0h-7.5A1.252,1.252,0,0,0,17.5,1.25v17.5A1.251,1.251,0,0,0,18.75,20h12.5a1.25,1.25,0,0,0,1.25-1.25V6.25Zm-5,11.25H20V13.75h2.5Zm3.75,0h-2.5V11.25h2.5Zm3.75,0H27.5V8.75H30Z" transform="translate(-17.5)" fill="#8dffd1"/>
      </g>
    </g>
  </g>
</svg>
