<svg xmlns="http://www.w3.org/2000/svg" width="379.481" height="131.781" viewBox="0 0 379.481 131.781">
  <g id="Group_67" data-name="Group 67" transform="translate(-82.731 -14.538)">
    <text id="_03" data-name="03" transform="translate(188.008 145.319)" fill="#617087" font-size="5" font-family="Montserrat-Light, Montserrat" font-weight="300"><tspan x="0" y="0">03</tspan></text>
    <line id="Line_1" data-name="Line 1" y1="4.148" transform="translate(82.981 137.245)" fill="none" stroke="#545f75" stroke-miterlimit="10" stroke-width="0.5"/>
    <line id="Line_2" data-name="Line 2" y1="4.148" transform="translate(138.376 137.245)" fill="none" stroke="#545f75" stroke-miterlimit="10" stroke-width="0.5"/>
    <line id="Line_4" data-name="Line 4" y1="4.148" transform="translate(246.039 137.245)" fill="none" stroke="#545f75" stroke-miterlimit="10" stroke-width="0.5"/>
    <line id="Line_5" data-name="Line 5" y1="4.148" transform="translate(299.87 137.245)" fill="none" stroke="#545f75" stroke-miterlimit="10" stroke-width="0.5"/>
    <line id="Line_6" data-name="Line 6" y1="4.148" transform="translate(349.416 137.245)" fill="none" stroke="#545f75" stroke-miterlimit="10" stroke-width="0.5"/>
    <line id="Line_7" data-name="Line 7" y1="4.148" transform="translate(410.144 137.245)" fill="none" stroke="#545f75" stroke-miterlimit="10" stroke-width="0.5"/>
    <line id="Line_8" data-name="Line 8" y1="4.148" transform="translate(461.963 137.245)" fill="none" stroke="#545f75" stroke-miterlimit="10" stroke-width="0.5"/>
    <line id="Line_9" data-name="Line 9" x2="242.079" transform="translate(177.72 38.58)" fill="none" stroke="#c6c9cc" stroke-miterlimit="10" stroke-width="0.5"/>
    <line id="Line_10" data-name="Line 10" x2="242.079" transform="translate(177.72 66.794)" fill="none" stroke="#c6c9cc" stroke-miterlimit="10" stroke-width="0.5"/>
    <line id="Line_11" data-name="Line 11" x2="242.079" transform="translate(177.72 16.264)" fill="none" stroke="#c6c9cc" stroke-miterlimit="10" stroke-width="0.5"/>
    <line id="Line_12" data-name="Line 12" x2="242.079" transform="translate(177.72 93.693)" fill="none" stroke="#c6c9cc" stroke-miterlimit="10" stroke-width="0.5"/>
    <line id="Line_13" data-name="Line 13" x2="242.079" transform="translate(177.72 121.052)" fill="none" stroke="#c6c9cc" stroke-miterlimit="10" stroke-width="0.5"/>
    <path id="Path_41" data-name="Path 41" d="M330.423,203.5a2.723,2.723,0,1,1,2.668-2.722A2.7,2.7,0,0,1,330.423,203.5Z" transform="translate(-87.798 -145.512)" fill="#fff"/>
    <g id="Group_61" data-name="Group 61" transform="translate(177.929 33.617)">
      <rect id="Rectangle_73" data-name="Rectangle 73" width="12.137" height="72.539" transform="translate(0 14.828)" fill="#3dd598"/>
      <rect id="Rectangle_74" data-name="Rectangle 74" width="12.137" height="87.367" transform="translate(16.813)" fill="#0058ff"/>
    </g>
    <g id="Group_62" data-name="Group 62" transform="translate(231.91 14.538)">
      <rect id="Rectangle_75" data-name="Rectangle 75" width="12.136" height="96.271" transform="translate(0 10.176)" fill="#3dd598"/>
      <path id="Path_44" data-name="Path 44" d="M0,0H12.136V106.446H0Z" transform="translate(16.813)" fill="#0058ff"/>
    </g>
    <g id="Group_63" data-name="Group 63" transform="translate(285.891 58.992)">
      <rect id="Rectangle_77" data-name="Rectangle 77" width="12.136" height="50.038" transform="translate(0 11.954)" fill="#3dd598"/>
      <rect id="Rectangle_78" data-name="Rectangle 78" width="12.136" height="61.992" transform="translate(16.813)" fill="#0058ff"/>
    </g>
    <g id="Group_64" data-name="Group 64" transform="translate(335.574 29.469)">
      <rect id="Rectangle_79" data-name="Rectangle 79" width="12.136" height="91.515" fill="#3dd598"/>
      <rect id="Rectangle_80" data-name="Rectangle 80" width="12.136" height="63.31" transform="translate(16.813 28.204)" fill="#0058ff"/>
    </g>
    <g id="Group_66" data-name="Group 66" transform="translate(390.612 16.197)">
      <rect id="Rectangle_83" data-name="Rectangle 83" width="12.136" height="67.458" transform="translate(0 37.329)" fill="#3dd598"/>
      <rect id="Rectangle_84" data-name="Rectangle 84" width="12.136" height="104.787" transform="translate(16.813)" fill="#0058ff"/>
    </g>
  </g>
</svg>
