<svg xmlns="http://www.w3.org/2000/svg" width="23.197" height="16.948" viewBox="0 0 23.197 16.948">
  <g id="Group_115" data-name="Group 115" transform="translate(-26.401 -21.484)">
    <g id="Group_114" data-name="Group 114" transform="translate(26.401 21.484)">
      <g id="Group_98" data-name="Group 98">
        <g id="Group_85" data-name="Group 85" transform="translate(2.089 2.316)">
          <g id="Group_84" data-name="Group 84">
            <path id="Path_509" data-name="Path 509" d="M31.454,211.36a5.469,5.469,0,1,1,5.469-5.469A5.475,5.475,0,0,1,31.454,211.36Zm0-7.784a2.315,2.315,0,1,0,2.315,2.315A2.318,2.318,0,0,0,31.454,203.576Z" transform="translate(-25.986 -200.422)" fill="#8dffd1"/>
          </g>
        </g>
        <g id="Group_88" data-name="Group 88" transform="translate(6.522)">
          <g id="Group_86" data-name="Group 86">
            <rect id="Rectangle_707" data-name="Rectangle 707" width="2.082" height="3.6" fill="#8dffd1"/>
          </g>
          <g id="Group_87" data-name="Group 87" transform="translate(0 11.526)">
            <rect id="Rectangle_708" data-name="Rectangle 708" width="2.082" height="3.6" fill="#8dffd1"/>
          </g>
        </g>
        <g id="Group_91" data-name="Group 91" transform="translate(1.479 1.479)">
          <g id="Group_89" data-name="Group 89" transform="translate(8.15)">
            <rect id="Rectangle_709" data-name="Rectangle 709" width="2.082" height="3.601" transform="translate(2.546) rotate(45)" fill="#8dffd1"/>
          </g>
          <g id="Group_90" data-name="Group 90" transform="translate(0 8.15)">
            <rect id="Rectangle_710" data-name="Rectangle 710" width="2.082" height="3.6" transform="translate(2.546 0) rotate(45)" fill="#8dffd1"/>
          </g>
        </g>
        <g id="Group_94" data-name="Group 94" transform="translate(0 6.522)">
          <g id="Group_92" data-name="Group 92" transform="translate(11.526 0)">
            <rect id="Rectangle_711" data-name="Rectangle 711" width="2.082" height="3.6" transform="translate(3.6) rotate(90)" fill="#8dffd1"/>
          </g>
          <g id="Group_93" data-name="Group 93" transform="translate(0 0)">
            <rect id="Rectangle_712" data-name="Rectangle 712" width="2.082" height="3.6" transform="translate(3.6 0) rotate(90)" fill="#8dffd1"/>
          </g>
        </g>
        <g id="Group_97" data-name="Group 97" transform="translate(1.479 1.479)">
          <g id="Group_95" data-name="Group 95" transform="translate(8.15 8.15)">
            <rect id="Rectangle_713" data-name="Rectangle 713" width="2.082" height="3.6" transform="translate(4.018 2.546) rotate(135)" fill="#8dffd1"/>
          </g>
          <g id="Group_96" data-name="Group 96" transform="translate(0 0)">
            <rect id="Rectangle_714" data-name="Rectangle 714" width="2.082" height="3.6" transform="matrix(-0.707, 0.707, -0.707, -0.707, 4.018, 2.546)" fill="#8dffd1"/>
          </g>
        </g>
      </g>
      <g id="Group_113" data-name="Group 113" transform="translate(13.211 6.962)">
        <g id="Group_100" data-name="Group 100" transform="translate(1.248 1.444)">
          <g id="Group_99" data-name="Group 99">
            <path id="Path_510" data-name="Path 510" d="M36.442,211.429a3.686,3.686,0,1,1,4.791-2.054A3.69,3.69,0,0,1,36.442,211.429Zm1.95-4.871a1.561,1.561,0,1,0,.869,2.028A1.563,1.563,0,0,0,38.391,206.558Z" transform="translate(-34.125 -204.32)" fill="#8dffd1"/>
          </g>
        </g>
        <g id="Group_103" data-name="Group 103" transform="translate(2.449 0)">
          <g id="Group_101" data-name="Group 101" transform="translate(2.885)">
            <rect id="Rectangle_715" data-name="Rectangle 715" width="1.403" height="2.427" transform="translate(0.901 0) rotate(21.799)" fill="#8dffd1"/>
          </g>
          <g id="Group_102" data-name="Group 102" transform="translate(0 7.212)">
            <rect id="Rectangle_716" data-name="Rectangle 716" width="1.403" height="2.427" transform="translate(0.901 0) rotate(21.799)" fill="#8dffd1"/>
          </g>
        </g>
        <g id="Group_106" data-name="Group 106" transform="translate(0.032 2.34)">
          <g id="Group_104" data-name="Group 104" transform="translate(7.14 0)">
            <rect id="Rectangle_717" data-name="Rectangle 717" width="1.403" height="2.427" transform="translate(2.23 0) rotate(66.797)" fill="#8dffd1"/>
          </g>
          <g id="Group_105" data-name="Group 105" transform="translate(0 3.06)">
            <rect id="Rectangle_718" data-name="Rectangle 718" width="1.403" height="2.427" transform="translate(2.23 0) rotate(66.8)" fill="#8dffd1"/>
          </g>
        </g>
        <g id="Group_109" data-name="Group 109" transform="translate(0 2.449)">
          <g id="Group_107" data-name="Group 107" transform="translate(7.212 2.885)">
            <rect id="Rectangle_719" data-name="Rectangle 719" width="1.403" height="2.427" transform="translate(2.774 0.901) rotate(111.801)" fill="#8dffd1"/>
          </g>
          <g id="Group_108" data-name="Group 108" transform="translate(0 0)">
            <rect id="Rectangle_720" data-name="Rectangle 720" width="1.403" height="2.427" transform="translate(2.774 0.901) rotate(111.801)" fill="#8dffd1"/>
          </g>
        </g>
        <g id="Group_112" data-name="Group 112" transform="translate(2.34 0.032)">
          <g id="Group_110" data-name="Group 110" transform="translate(3.06 7.14)">
            <rect id="Rectangle_721" data-name="Rectangle 721" width="1.403" height="2.427" transform="translate(2.246 2.23) rotate(156.797)" fill="#8dffd1"/>
          </g>
          <g id="Group_111" data-name="Group 111" transform="translate(0 0)">
            <rect id="Rectangle_722" data-name="Rectangle 722" width="1.403" height="2.427" transform="translate(2.246 2.23) rotate(156.806)" fill="#8dffd1"/>
          </g>
        </g>
      </g>
    </g>
  </g>
</svg>
