<svg xmlns="http://www.w3.org/2000/svg" width="65" height="65" viewBox="0 0 65 65">
  <g id="Group_183" data-name="Group 183" transform="translate(-1797 -905)">
    <circle id="Ellipse_19" data-name="Ellipse 19" cx="32.5" cy="32.5" r="32.5" transform="translate(1797 905)" fill="#fff"/>
    <g id="Group_129" data-name="Group 129" transform="translate(1785.901 916.333)">
      <path id="Path_531" data-name="Path 531" d="M137.5,135.882l8.549,4.936a.576.576,0,0,0,.576,0l8.549-4.936a.576.576,0,0,0,.288-.5v-9.871a.576.576,0,0,0-.288-.5l-8.549-4.936a.576.576,0,0,0-.576,0l-8.549,4.936a.576.576,0,0,0-.288.5v9.871A.576.576,0,0,0,137.5,135.882Zm.864-9.372,7.4,4.27v8.541l-7.4-4.27Zm7.973,3.273-7.4-4.27,3.122-1.8,7.4,4.27Zm.576,9.539V130.78l7.4-4.27v8.541Zm-.576-18.079,7.4,4.27-3.122,1.8-7.4-4.27Z" transform="translate(-101.506 -110.782)" fill="#121212"/>
      <path id="Path_532" data-name="Path 532" d="M283.3,260.865a.576.576,0,0,0-.576,0l-3.94,2.275a.576.576,0,0,0-.288.5V266.3a.576.576,0,0,0,.864.5l3.94-2.275a.576.576,0,0,0,.288-.5v-2.661A.576.576,0,0,0,283.3,260.865Zm-.864,2.827-2.787,1.609v-1.331l2.787-1.609Z" transform="translate(-231.936 -240.754)" fill="#121212"/>
      <path id="Path_533" data-name="Path 533" d="M60.1,23.839V15.492a4.032,4.032,0,1,0-4.018-6.961l-7.23-4.174c.009-.107.014-.215.014-.324a4.033,4.033,0,1,0-8.066,0c0,.109.006.217.014.324l-7.23,4.174a4.032,4.032,0,1,0-4.018,6.961v8.347A4.032,4.032,0,1,0,33.586,30.8l7.23,4.174c-.009.107-.014.215-.014.324a4.033,4.033,0,0,0,8.066,0c0-.109-.006-.217-.014-.324l7.23-4.174A4.032,4.032,0,1,0,60.1,23.839Zm-1.152-.348a3.992,3.992,0,0,0-1.152,0v-7.65a3.992,3.992,0,0,0,1.152,0Zm2.3-11.642a2.881,2.881,0,1,1-2.881-2.881A2.884,2.884,0,0,1,61.254,11.849ZM55.207,9.356a4.034,4.034,0,0,0-.578,1L48,6.526a4.034,4.034,0,0,0,.578-1Zm-10.372-8.2a2.881,2.881,0,1,1-2.881,2.881A2.884,2.884,0,0,1,44.835,1.152ZM41.669,6.527l-6.628,3.827a4.032,4.032,0,0,0-.578-1l6.628-3.827a4.033,4.033,0,0,0,.578,1ZM28.416,11.849A2.881,2.881,0,1,1,31.3,14.73,2.884,2.884,0,0,1,28.416,11.849Zm2.3,3.991a3.992,3.992,0,0,0,1.152,0v2.673a.576.576,0,0,0,1.152,0V15.492a4.038,4.038,0,0,0,2.3-3.643c0-.109-.006-.217-.014-.324l7.23-4.175a4.021,4.021,0,0,0,4.578,0l7.23,4.174c-.009.107-.014.215-.014.324a4.038,4.038,0,0,0,2.3,3.643v8.347a4.038,4.038,0,0,0-2.3,3.643c0,.109.006.217.014.324l-7.23,4.174a4.021,4.021,0,0,0-4.579,0l-7.23-4.174c.009-.107.014-.215.014-.324a4.038,4.038,0,0,0-2.3-3.643V20.818a.576.576,0,0,0-1.152,0v2.673a3.992,3.992,0,0,0-1.152,0Zm-2.3,11.642A2.881,2.881,0,1,1,31.3,30.363,2.884,2.884,0,0,1,28.416,27.482Zm6.047,2.493a4.034,4.034,0,0,0,.578-1l6.628,3.827a4.034,4.034,0,0,0-.578,1Zm10.372,8.2A2.881,2.881,0,1,1,47.716,35.3,2.884,2.884,0,0,1,44.835,38.179ZM48,32.805l6.628-3.827a4.033,4.033,0,0,0,.578,1L48.579,33.8A4.034,4.034,0,0,0,48,32.805Zm10.372-2.442a2.881,2.881,0,1,1,2.881-2.881A2.884,2.884,0,0,1,58.374,30.363Z" fill="#121212"/>
    </g>
  </g>
</svg>
