<svg xmlns="http://www.w3.org/2000/svg" width="195.251" height="103.287" viewBox="0 0 195.251 103.287">
  <g id="Group_133" data-name="Group 133" transform="translate(-21.066 -3.824)">
    <line id="Line_9" data-name="Line 9" x2="195.144" transform="translate(21.173 29.882)" fill="none" stroke="#c6c9cc" stroke-miterlimit="10" stroke-width="0.5"/>
    <line id="Line_10" data-name="Line 10" x2="195.144" transform="translate(21.173 55.501)" fill="none" stroke="#c6c9cc" stroke-miterlimit="10" stroke-width="0.5"/>
    <line id="Line_11" data-name="Line 11" x2="194.748" y2="1.752" transform="translate(21.173 4.074)" fill="none" stroke="#c6c9cc" stroke-miterlimit="10" stroke-width="0.5"/>
    <line id="Line_12" data-name="Line 12" x2="194.748" y2="0.446" transform="translate(21.173 81.12)" fill="none" stroke="#c6c9cc" stroke-miterlimit="10" stroke-width="0.5"/>
    <line id="Line_13" data-name="Line 13" x2="195.144" transform="translate(21.173 106.739)" fill="none" stroke="#c6c9cc" stroke-miterlimit="10" stroke-width="0.5"/>
    <path id="Path_41" data-name="Path 41" d="M330.3,203.239a2.593,2.593,0,1,1,2.541-2.593A2.57,2.57,0,0,1,330.3,203.239Z" transform="translate(-145.003 -156.126)" fill="#fff"/>
    <g id="Group_59" data-name="Group 59" transform="translate(146.071 44.527)">
      <path id="Path_42" data-name="Path 42" d="M249.385,252.45H237.826l.7-39.755h11.559Z" transform="translate(-237.826 -190.061)" fill="#3dd598"/>
      <path id="Path_43" data-name="Path 43" d="M258.605,262.051H247.047l.7-62.389h11.559Z" transform="translate(-231.034 -199.662)" fill="#0058ff"/>
    </g>
    <g id="Group_60" data-name="Group 60" transform="translate(21.066 46.815)">
      <rect id="Rectangle_71" data-name="Rectangle 71" width="11.798" height="42.299" transform="translate(0 17.997)" fill="#3dd598"/>
      <rect id="Rectangle_72" data-name="Rectangle 72" width="11.798" height="60.296" transform="translate(16.344)" fill="#0058ff"/>
    </g>
    <g id="Group_61" data-name="Group 61" transform="translate(63.353 23.903)">
      <rect id="Rectangle_73" data-name="Rectangle 73" width="11.559" height="69.086" transform="translate(0 14.122)" fill="#3dd598"/>
      <rect id="Rectangle_74" data-name="Rectangle 74" width="11.559" height="83.208" transform="translate(16.013)" fill="#0058ff"/>
    </g>
    <g id="Group_62" data-name="Group 62" transform="translate(188.746 5.537)">
      <rect id="Rectangle_75" data-name="Rectangle 75" width="11.559" height="91.687" transform="translate(0 9.691)" fill="#3dd598"/>
      <path id="Path_44" data-name="Path 44" d="M0,0H11.559V101.379H0Z" transform="translate(16.013)" fill="#0058ff"/>
    </g>
    <line id="Line_37" data-name="Line 37" x2="195.144" transform="translate(21.173 81.12)" fill="none" stroke="#c6c9cc" stroke-miterlimit="10" stroke-width="0.5"/>
    <g id="Group_130" data-name="Group 130" transform="translate(104.765 5.732)">
      <rect id="Rectangle_75-2" data-name="Rectangle 75" width="11.559" height="91.687" transform="translate(0 9.691)" fill="#3dd598"/>
      <path id="Path_44-2" data-name="Path 44" d="M0,0H11.559V101.379H0Z" transform="translate(16.013)" fill="#0058ff"/>
    </g>
  </g>
</svg>
