<svg xmlns="http://www.w3.org/2000/svg" width="312.844" height="144.174" viewBox="0 0 312.844 144.174">
  <g id="Group_136" data-name="Group 136" transform="translate(-25.078 -57)">
    <g id="Group_77" data-name="Group 77" transform="translate(25.078 57)">
      <g id="Group_76" data-name="Group 76">
        <path id="Path_52" data-name="Path 52" d="M452.629,390.226c.359-.028.842-.35,1.145-.059a2.4,2.4,0,0,1-1.145,1.266c-.252.11-.58.07-.843.182-.5.2-.765.726-1.2,1.084-.415.337-.962.624-1.389.9-.408.267-1,.812-1.506.421.039-.7.79-.7.966-1.267,0-.421-.375-.468-.362-.9.835-.731,2.148-1.257,2.348-2.77.091-.67-.453-2.107.362-2.169.959-.073.418.965.484,1.506.024.219.249.368.358.663C452.045,389.61,452.028,390.091,452.629,390.226Z" transform="translate(-140.931 -265.269)" fill="#e0e0e0"/>
        <path id="Path_53" data-name="Path 53" d="M450.355,392.018c-.334,1.005-1.8,1.533-2.771,2.169-.3.2-.54.643-.9.782-.47.187-1,.127-1.5.362a19.53,19.53,0,0,0-2.109,1.568,6.5,6.5,0,0,1-2.531,1.144c-.892.069-2.538-.5-1.446-1.324a15.917,15.917,0,0,1,1.988-1.024c1.713-.86,4.122-1.439,5.542-2.471.8-.583,1.528-1.2,2.291-1.686C449.29,391.294,449.933,391.947,450.355,392.018Z" transform="translate(-144.501 -263.447)" fill="#e0e0e0"/>
        <path id="Path_54" data-name="Path 54" d="M440.38,363.049c.193-.053.187.094.3.119a1.363,1.363,0,0,1-1.688,1.327c-.491-.045-1.349-.414-1.384-.661C437.487,362.968,439.83,363.5,440.38,363.049Z" transform="translate(-144.948 -274.779)" fill="#e0e0e0"/>
        <path id="Path_55" data-name="Path 55" d="M442.649,368.706c.435.123,2.372,1.493,1.747,2.107-.337.34-.772-.179-1.323-.3-.738-.162-1.3.035-1.807-.362-.575-.449-.712-1.426-1.327-1.988a2.712,2.712,0,0,0-1.685-.6c-.958.1-.948,1.2-1.808,1.688-.822-.088-1.31.15-1.928-.062-.652-.222-.979-1.066-1.568-1.142-.611-.083-2.061.986-2.288.06-.185-.751,1.011-1,1.084-1.507a2.413,2.413,0,0,0-.724-1.566c-.252-.228-.607-.246-.9-.421s-.545-.537-.9-.723c-1.261-.659-3.188-.392-3.674-1.447-.087-.186.048-.392-.06-.661-.131-.33-.617-.436-.785-.723-.428-.734-.127-1.819.6-1.928a2.713,2.713,0,0,1,2.109,1.207c.081.256-.055.545,0,.842.069.357.6,1.226,1.084,1.264.625.052.993-.91,1.566-1.264a2.955,2.955,0,0,1,1.568-.481c.512.039.856.442,1.445.661.421.158.947.221,1.447.361.436.124.815.382,1.264.543,1.435.52,3.141.825,3.915,1.748.211.253.207.625.484.9.253.257,1.647.509,1.685,1.085.031.438-.573.464-.6.9C441.209,367.778,442.44,367.726,442.649,368.706Z" transform="translate(-150.169 -276.34)" fill="#e0e0e0"/>
        <path id="Path_56" data-name="Path 56" d="M429.523,391.86a3.826,3.826,0,0,1-1.506,2.109c-.543.379-2.271,1.143-2.47.062a7.141,7.141,0,0,1,.481-1.988c.426-.845.881-.292,1.568-.182C428.3,391.974,428.961,391.433,429.523,391.86Z" transform="translate(-149.754 -263.408)" fill="#e0e0e0"/>
        <path id="Path_57" data-name="Path 57" d="M427.74,330.377c.245.723.411,1.436.6,2.109-.664.826-1.977.52-2.951.964-.457.208-.585.969-1.025,1.085-.355.092-.629-.308-.964-.3-.866.017-1.289,1.449-2.351,1.085-.607.362.024,1.749-.723,1.867-.53.082-.822-.6-1.145-1.024-.389-.512-.945-.792-.961-1.205-.017-.429.864-1.147,1.142-1.445a4.274,4.274,0,0,1,1.445-1.147c.8-.176,1.619.078,2.23-.179.529-.225.558-1.056.843-1.266.242-.179.517-.13.723-.241a2.187,2.187,0,0,0,.843-2.411c-.2-.671-1.316-1.408-.6-2.229a3.317,3.317,0,0,1,2.651,2.229c.069.415-.162.832-.123,1.266A5.668,5.668,0,0,0,427.74,330.377Z" transform="translate(-152.669 -289.519)" fill="#e0e0e0"/>
        <path id="Path_58" data-name="Path 58" d="M426.559,325.048c-.136.308-.408.243-.663.421s-.538.726-.842.784c-.484.091-1.028-.475-1.509-.361-.564.133-.234.566-.421,1.082-.494-.1-1.3-.654-1.324-1.2-.014-.345.435-.559.543-.964.178-.689-.284-1.035-.543-1.686-.02-.1.057-.1.059-.182.589-.123,1.745.986,3.074,1.205C425.789,324.286,426.508,324.211,426.559,325.048Z" transform="translate(-151.246 -290.757)" fill="#e0e0e0"/>
        <path id="Path_59" data-name="Path 59" d="M423.867,368.241c.062.5-.812.442-.9.119C422.98,367.971,423.759,367.85,423.867,368.241Z" transform="translate(-150.782 -272.802)" fill="#e0e0e0"/>
        <path id="Path_60" data-name="Path 60" d="M420.606,320.827c.6.315,2.042,1.029,1.024,1.686C421.013,322.285,420.372,321.507,420.606,320.827Z" transform="translate(-151.74 -291.595)" fill="#e0e0e0"/>
        <path id="Path_61" data-name="Path 61" d="M418.937,366.534c.689-.376,1.443-1.2,2.65-.786-.264.751-1.173.736-1.747,1.085s-1.073.955-1.807,1.024a.551.551,0,0,0-.242-.24C417.789,366.943,418.46,366.79,418.937,366.534Z" transform="translate(-152.841 -273.745)" fill="#e0e0e0"/>
        <path id="Path_62" data-name="Path 62" d="M418.272,358.248c.708,0,1.373-.218,1.865.06-.092,1.506-2.428.361-3.974.6-.33.05-.426.3-.784.179a1.3,1.3,0,0,1,1.144-1.082C416.965,357.961,417.625,358.245,418.272,358.248Z" transform="translate(-153.802 -276.785)" fill="#e0e0e0"/>
        <path id="Path_63" data-name="Path 63" d="M419.252,359.563c.069.833-1.07.927-1.386,1.569a28.212,28.212,0,0,0,1.266,2.528c-.024.459.092,1.06-.182,1.266-1.212.232-1.864-1.947-2.349-2.71-.927.175-.081,3.139-1.324,2.772-.61-.182.008-1.029-.122-1.686-.112-.578-.678-.7-.723-1.147-.034-.372.41-.765.543-1.144.192-.547.07-1.6.722-1.625.323-.015.755.677.965.721C417.381,360.262,418.235,359.372,419.252,359.563Z" transform="translate(-154.181 -276.234)" fill="#e0e0e0"/>
        <path id="Path_64" data-name="Path 64" d="M416.73,366.066c-.222.456-1.461.238-1.565-.182C415.376,365.41,416.626,365.553,416.73,366.066Z" transform="translate(-153.888 -273.76)" fill="#e0e0e0"/>
        <path id="Path_65" data-name="Path 65" d="M415.842,367.165a1.571,1.571,0,0,1-.239.243c-.459-.147-.947-.257-1.085-.724C414.856,366.189,415.827,366.6,415.842,367.165Z" transform="translate(-154.145 -273.415)" fill="#e0e0e0"/>
        <path id="Path_66" data-name="Path 66" d="M415.194,366.033c-.306.435-1.366-.035-1.747.422-.626-.015-1.259-.024-1.386-.543.18-.441.752-.137,1.2-.18C413.995,365.666,415,365.156,415.194,366.033Z" transform="translate(-155.124 -273.788)" fill="#e0e0e0"/>
        <path id="Path_67" data-name="Path 67" d="M408.674,388.223a12.584,12.584,0,0,0-.422-1.565c-.031-.2.029-.467,0-.724-.04-.372-.224-.682-.182-.9.084-.4.55-.442.666-.783.189-.562-.232-.652-.242-1.326-.008-.475.361-.708.6-1.324.112-.287.116-.821.239-1.025.157-.256.824-.474,1.085-.6.924-.454,1.664-1.3,2.593-1.447.234-.038.554.029.723,0,.545-.1,1.232-.554,1.987-.723a6.9,6.9,0,0,0,1.928-.422,5.027,5.027,0,0,0,1.685-1.807c.275-.663.194-1.221.723-1.446.26-.109.515.01.783-.06a3.707,3.707,0,0,0,1.085-.543c.42-.375.488-.991.964-1.386a8.458,8.458,0,0,1,1.386-.9,2.4,2.4,0,0,1,.962-.242c.85.073,1.246,1.259,2.17,1.024.33-.083.666-.784.965-1.2.435-.615.751-1.443,1.5-1.626.61-.15,1.292.234,1.626-.3.077-.38-.284-.607,0-.843.7.043,1.891.991,2.952,1.022.572.02,1.633-.622,1.748.243.05.382-.429.692-.543,1.084-.08.277.119.426-.06.723-.491.193-1.008.3-1.024.843-.018.687.972,1.01,1.565,1.387.408.257.747.65.965.782.186.109.48.161.6.24.392.255.668.829,1.207.845.611.015,1.222-.765,1.565-1.507a12.45,12.45,0,0,0,.6-2.832c.06-.3.277-.6.362-.9.232-.824.547-1.937,1.264-2.229a4.8,4.8,0,0,1,.845,3.5c.481.365,1.327.243,1.444,1.085.041.291-.144.661-.12.961.041.509.418.952.484,1.386.12.8-.134,1.466.239,2.05.47.736,1.391.712,1.988,1.507a2.8,2.8,0,0,0,.3,1.081c.056.185,0,.484.06.6.194.4.716.443.9.782.092.168.067.482.18.783a7.114,7.114,0,0,0,.843,1.205,5.432,5.432,0,0,1,.783,1.207c.12.6-.315,1.011-.422,1.5a12.608,12.608,0,0,1-.239,1.989,22.172,22.172,0,0,1-1.507,2.349,7.967,7.967,0,0,1-1.688,2.107c-.38.3-.832.481-1.2.786a17.588,17.588,0,0,0-1.566,1.625c-.543.575-1.2,1.012-1.628,1.5-.618.717-.926,1.872-1.987,1.988a6.368,6.368,0,0,0-1.747.242c-.892.355-1.484,1.007-1.927,1.025-.466.014-.895-.547-1.327-.6-.481-.061-.86.366-1.565.362-.288,0-.432-.171-.843-.3-.861-.271-1.807-.262-1.927-1.2-.069-.513.327-.744.3-1.205s-.475-.575-.663-.964a1,1,0,0,0-.3-1.205,1.211,1.211,0,0,1,.241-.843,8.071,8.071,0,0,0-1.205.484c-.439.264-.755.873-1.263.782-.477-.168-.111-.64-.182-1.024a5.266,5.266,0,0,0-1.025-1.747,8.551,8.551,0,0,0-2.047-.784c-1.863-.292-3.048.7-4.52.846-.378.034-.789-.064-1.144,0a8.169,8.169,0,0,0-3.314,1.805c-1.246.123-2.509-.256-3.8.122s-2.008,1.436-3.973,1.142c-.39-.334-1.082-.5-1.085-1.084-.006-.459.68-.755.9-1.084a4.242,4.242,0,0,0,.661-1.688c.013-.4-.27-.88-.242-1.384C408.456,389.035,408.677,388.615,408.674,388.223Z" transform="translate(-157.097 -272.905)" fill="#e0e0e0"/>
        <path id="Path_68" data-name="Path 68" d="M408.9,364.69c.329-.046.573-.289.9-.3.7-.028,1.4.519,2.228.42.18.194.057.357.063.664.7.376,1.86.308,2.226,1.022-.527.561-1.312.158-1.989.06-.611-.087-1.263-.045-1.927-.12-.843-.1-1.605-.564-2.408-.661-.488-.062-.987.07-1.447,0-.541-.084-2.562-.846-2.59-1.384-.029-.557.909-.712,1.745-.6C406.792,363.928,407.515,364.883,408.9,364.69Z" transform="translate(-158.351 -274.493)" fill="#e0e0e0"/>
        <path id="Path_69" data-name="Path 69" d="M409.447,364.745c-.454-.127-.882-.057-1.081-.182-.414-.253-.352-.975-.485-1.386s-.632-.638-.9-1.2c-.393-.822-.562-2.661.48-2.832.42-.07.852.253,1.144.182.582-.144.48-.895.965-1.207.269-.173.762-.1,1.145-.24a2.6,2.6,0,0,0,.964-.843c.253-.3.45-.805.783-1.022.375-.248.722-.253,1.024-.484.79-.6.815-1.442,1.446-2.169.534-.615,1.38.592,1.446,1.085.3.383.889.477,1.144.9-.354,1.06-1.355,1.151-1.144,2.65a4.286,4.286,0,0,0,.362,1.025c.172.354.681.734.661.963-.039.45-.945.431-1.145.9-.182.438.014.467-.059,1.144-.254.492-.934.61-1.147,1.207-.253.716.039,1.643-.541,2.169-.4-.021-.838.347-1.323.3-.527-.048-1.032-.772-1.87-.783-.32,0-.7.2-1.025.182C410.035,365.086,409.826,364.85,409.447,364.745Z" transform="translate(-157.269 -278.703)" fill="#e0e0e0"/>
        <path id="Path_70" data-name="Path 70" d="M406.2,360.493a1.19,1.19,0,0,1,0,2.379A1.19,1.19,0,0,1,406.2,360.493Z" transform="translate(-157.918 -275.793)" fill="#e0e0e0"/>
        <path id="Path_71" data-name="Path 71" d="M407.593,362.59a2.5,2.5,0,0,1,.843,1.205c-.021.425-.657.4-.843.964-.284.867.127,1.847-.361,2.291a2.726,2.726,0,0,1-1.205.119,17.749,17.749,0,0,1-2.892-2.71,6.726,6.726,0,0,1-.963-1.085c-.313-.575-.425-1.208-.783-1.747-.316-.473-.895-.811-1.205-1.324-.252-.424-.275-.979-.541-1.387-.249-.378-.668-.54-.965-.843-.192-.2-.3-.506-.481-.723-.758-.906-2.214-1.38-2.288-2.711.308-.352.626.133,1.2.242.373.071.815-.029,1.084.06.547.183.924,1.039,1.506,1.506.326.261.75.443,1.082.722.358.3.619.73.9.9.391.241.936.4,1.446.724.7.442,1.94.9,2.109,1.808.042.224-.1.6-.06.78.083.316.482.454.722.723.3.336.358.839.785.9C407.113,363.131,407.133,362.531,407.593,362.59Z" transform="translate(-161.559 -278.176)" fill="#e0e0e0"/>
        <path id="Path_72" data-name="Path 72" d="M384.064,351.241c.519.171,2.25,2.274,1.746,3.434a1.364,1.364,0,0,1-1.324.663c-1.194-.189-.965-2.843-.6-3.915A.305.305,0,0,1,384.064,351.241Z" transform="translate(-166.465 -279.479)" fill="#e0e0e0"/>
        <path id="Path_73" data-name="Path 73" d="M355.593,374.688a2.72,2.72,0,0,1,.783-1.569c.555-.413,1.306-.371,1.868-.663a4.718,4.718,0,0,0,1.444-1.084c.291-.376.306-.805.544-1.085.161-.193.526-.245.72-.481.175-.213.137-.608.424-.842.836-.358,1.077,1.173,1.205,2.226a7.4,7.4,0,0,1,.178.843c-.085.481-.615.58-.782.908a9.7,9.7,0,0,1-1.025,3.55c-.4.938-.632,1.965-.962,2.773-.12.294-.373.523-.481.782-.435,1.025-.6,2.635-1.387,3.074a6.33,6.33,0,0,1-1.688.421,1.717,1.717,0,0,1-1.565-1.2,8.867,8.867,0,0,1-.062-1.084,5.092,5.092,0,0,1-.3-1.447c.134-1.226,1.328-1.821,1.386-2.832C355.939,376.213,355.508,375.458,355.593,374.688Z" transform="translate(-178.055 -272.439)" fill="#e0e0e0"/>
        <path id="Path_74" data-name="Path 74" d="M345.175,316.442c.07,1.011-1.544.884-1.748,1.748-.091.392.189.913.122,1.266-.123.632-.734.448-1.506.782-.393.171-.776.8-1.2.843-.4.043-.64-.231-.9-.179-.4.074-.263.559-.843.662-.463.081-1.273-.414-1.326.18-.035.383.727.59,1.205.543.378-.036.656-.3,1.024-.3.713-.007,1.177.529,1.626.543,1.033.028,2.049-.956,3.134-.845.489.05.78.4,1.144.362.582-.055,1.075-.726,1.506-.965-.183-1.014.017-2.354.963-2.409.652-.038,1.629,1.113,1.747,0,.052-.484-.513-.912-.9-.9-.347.007-.8.687-1.085.122,0-.552.621-.407.965-.544.256-.1.438-.38.723-.482,1.433-.5,3.419.5,3.976-.721-1.271-1.085-3.436.4-4.879.3a1.977,1.977,0,0,1-1.626-1.084c-.063-.186-.011-.435-.062-.783-.053-.385-.253-.787-.239-1.025.06-1.088,2.77-1.292,2.77-2.65a2.273,2.273,0,0,0-2.531.12c-.178.192-.168.579-.421.965-.54.822-2.285.92-2.832,1.927a2.145,2.145,0,0,0-.241,1.2C343.871,315.688,345.134,315.842,345.175,316.442ZM330.837,375.36a8.992,8.992,0,0,0-4.7.964,6.815,6.815,0,0,1-1.989.783,11.3,11.3,0,0,1-1.685-.361,9.266,9.266,0,0,0-2.351.12c-.692.123-1.317.618-1.927.663-1.169.088-2.279-1.053-3.012-1.626-.449-.35-.906-.636-1.326-.963-.45-.352-1.035-.566-1.386-.9-.474-.46-.474-1.259-.723-1.868-.294-.719-1.186-1.246-1.868-1.928-.509-.509-1.679-1.271-1.807-1.927-.064-.334.143-.72.12-1.085-.032-.527-.429-.826-.421-1.2.011-.53.635-.94.783-1.386.076-.228.039-.551.12-.843.168-.611.573-.973.482-1.868-.036-.357-.343-.681-.362-1.144-.013-.316.208-.492.18-.783-.045-.515-.713-.615-.783-1.205-.07-.61.583-1.113.965-1.807.172-.31.266-.787.421-1.024.337-.513.888-.761,1.145-1.267.189-.372.25-.924.421-1.2.222-.359.664-.552,1.085-1.024.343-.385.482-.85.723-1.025a6.11,6.11,0,0,1,1.085-.421,4.748,4.748,0,0,0,2.468-2.23,2.5,2.5,0,0,1,.482-2.047,3.749,3.749,0,0,1,1.266-1.568c.754-.425,1.461-.464,1.987-1.263a3.791,3.791,0,0,0,.664-1.507,1.674,1.674,0,0,0-1.145-1.446c-.544-.087-1.382.414-1.686-.18-.1-.19.036-.633,0-.843-.07-.394-.408-.673-.421-.964-.029-.566.555-1.155.722-1.807a7.752,7.752,0,0,0-.06-2.591c.842-1.329,2.713-.67,4.578-.544.28.021.6-.066.9-.059,1.106.027,1.977.359,2.349-.6a6.46,6.46,0,0,0,.182-2.049,4.675,4.675,0,0,0-1.267-1.686c-.6-.379-1.464-.214-1.807-.9.278-1.189,1.611-.2,2.409-.481.408-.145.362-.852.724-.965.248-.077.562.247.9.242a6.206,6.206,0,0,0,1.626-.724c.386-.26.5-.8.843-1.024a4.707,4.707,0,0,1,.783-.241,4.537,4.537,0,0,0,1.506-1.085c.5-.6.722-1.335,1.326-1.444.808-.148,2.635.159,2.772-.724.129-.842-.741-1.5-.422-2.409.253-.717.9-.59,1.808-1.025.439.313.312,1.2.361,1.748.559.006,1.7-.165,1.807-.663.136-.621-.815-1.252-1.024-1.626-.225-.406-.274-1.12-.723-1.2-.917-.178-1.808,1.264-2.952,1.264a2.012,2.012,0,0,1-1.747-1.145,4.987,4.987,0,0,1-.062-.963,4.328,4.328,0,0,1-.241-1.686c.461-.79,1.524-.919,2.291-1.326.289-.154.522-.482.843-.6.54-.2,1.338,0,1.867-.3.336-.189.241-.519.482-.9.151-.242.519-.383.723-.661.141-.193.158-.485.3-.663.523-.652,1.478-.892,1.865-1.566.172-.3-.3-.408-.179-.845.194-.42.945-.11,1.384-.18.6-.092,1.154-.821,1.807-.963a13.964,13.964,0,0,0,2.05-.3c.379-.145.727-.489,1.084-.543.127-.02.482.069.661.06.231-.008.478-.151.784-.18.442-.045.991.108,1.566.12.952.021,1.858-.287,2.651.06.414.182.368.652.9.843.27.1.625-.038,1.025,0,.59.056,1.205.464,1.987.543.28.028.566-.035.843,0a14.626,14.626,0,0,1,2.653.843c.7.239,2.2.536,2.228,1.205.034.792-1.3,1.024-1.868,1.024-.947,0-2.2-.554-3.191-.24a2.518,2.518,0,0,0,2.832,2.229c.117-.64-.762-.285-.664-.9.6-.455,1.32.3,2.169.18.331-.089.275-.569.361-.9a2.835,2.835,0,0,1,2.711-.6.537.537,0,0,1,.242-.241c.071-.661-.723-1.007-.3-1.628.21-.428,1.334-.28,1.506.06.087.408-.278.364-.242.723a.971.971,0,0,0,.965.543c.592-.031.709-.561,1.267-.843.224-.115.554-.126.842-.241.341-.136.631-.41.9-.482.2-.053.5,0,.783-.06.357-.077.733-.364,1.025-.361.364,0,.622.42,1.084.482.252.032.537-.144.9-.182.3-.032.6.035.843,0,.576-.084.97-.386,1.447-.362.336.018.912.471,1.144.242.389-.386-.52-.674-.239-1.025.923.07,1.9.049,2.832.18,1.376.2,2.672.878,3.914.9-.117-.836-1.075-.6-1.506-.962a3.469,3.469,0,0,1-.661-1.266,7.256,7.256,0,0,1,.842-1.446,2.407,2.407,0,0,1,2.77.18c.341.461.228,1.159.723,1.145.427-.013.653-1.06,1.145-1.085.408-.021.615.671,1.024.663.5-.01.846-.94,1.507-.964.355-.014.474.182,1.024.241.376-.242-.126-.562.06-.9.674-.491,2.212-.117,3.072-.422.239-.287-.306-.488-.06-.783a8.948,8.948,0,0,1,3.254-.782c.773-.133,1.5-.67,2.107-.724.632-.056,1.236.371,1.807.362a3.412,3.412,0,0,0,1.085-.24c.34-.133.571-.462.9-.544a16.563,16.563,0,0,1,1.808,0,8.362,8.362,0,0,1,1.685-.239c.438.07.79.537,1.205.6,1.268.2,2.579-.192,3.734.119.207.057.415.271.664.362.773.284,1.3.2,1.446,1.144.61.217.966.775,1.686.965a6.165,6.165,0,0,0,1.506-.062,16.929,16.929,0,0,1,2.228.12c.345.055.631.308.965.364.243.039.566-.027.843,0,.378.034.716.189,1.024.18.632-.02,1.11-.583,1.626-.664a4.287,4.287,0,0,1,.9.12,27.112,27.112,0,0,1,3.012.062,5.948,5.948,0,0,1,1.688.963c.354.27.569.7.9.9a3.333,3.333,0,0,0,1.446.482c.386-.062.4-.489.783-.663,1.2-.266,3.316.382,4.278-.06.372-.172.3-.566.6-.783,1.807-.088,3.608.074,5.3.12a13.613,13.613,0,0,1,1.748-.06c.6.1,1.031.7,1.625.9.4.134,1.092.064,1.688.182.4.077.726.317,1.024.361a8.379,8.379,0,0,0,1.87-.12,10.533,10.533,0,0,1,4.518.362c.723.291,1.028.877,1.805.962,1.113.123,2.837-.091,3.977,0a6.763,6.763,0,0,0,.722.12c.383-.027.615-.351,1.085-.361.6-.013,1.545.93,2.411.784.373-.253-.3-.6.059-.845.338-.281.8,0,1.326,0,.285,0,.635-.144.9-.12.661.057,1.289.653,2.107.842a7.505,7.505,0,0,0,2.351.123,6.523,6.523,0,0,1,1.626-.182,8.186,8.186,0,0,1,.782.3c.257.064.509,0,.723.059s.4.243.6.3c1.12.32,2.611.478,3.8.843a9.524,9.524,0,0,0,1.988.661c.285.01.538-.123.9-.119,1.821.011,3.96.769,3.794,2.47-2.131.467-3.913-1.467-6.144-.9a.958.958,0,0,0-.722.843c.083,1.05,2.727.961,2.949,1.988-.434.324-.906.018-1.264.06a4.41,4.41,0,0,0-1.808.964c-.407.382-.765,1.359-1.2,1.446-.538.1-1.359-.53-2.169-.361-.3.062-.582.431-.843.481-.664.126-1.51-.362-1.926.422.218.55.085,1.317.541,1.626.294.2.661.045,1.024.18.424.158.657.674,1.022.965.3.235.619.242.786.541.038.445-.178.494-.122.783.094.506.884.619.9.963.027.435-.5.343-.6.783-.038.28.324.355.361.723.024.246-.2.5-.18.783.027.4.344.67.3,1.025a.94.94,0,0,1-.543.663c-1.154-.741-2.193-1.762-3.434-2.711-1.27-.973-3.285-2.169-3.493-4.216-.007-.315.666-.561.783-1.025.048-.19-.075-.46-.06-.722.043-.708.627-1.389.6-1.808a2.539,2.539,0,0,0-1.327-1.446c-.35.183,0,.548-.06.843a1.191,1.191,0,0,1-.9.843c-1.14.1-1.268-1.468-3.074-1.024a1.524,1.524,0,0,0-.964,1.686c.05.264.775.547.723.9s-1.642.448-1.988.421c-.972-.078-1.471-.805-2.348-.783-.431.01-.808.361-1.145.421-1.9.347-4.714-.934-5.36.723-.094.234-.042.54-.122.783a8.472,8.472,0,0,1-.482.845c-.073.185-.062.552-.182.842-.109.264-1.249,1.292-.241,1.568.241.064.354-.1.664-.062.517.071,1.379.9,1.987.9.364,0,.867-.41,1.144-.422a2.813,2.813,0,0,1,1.386.543,4.577,4.577,0,0,0,1.326.6c.569-.028.3-.422.843-.6,1.042.309,1.531,1.412,2.53,2.289.362.316.9.589,1.387,1.024.271.243,1.109.9,1.145,1.205.031.287-.235.41-.3.663-.1.366.131.636-.12.9-.961-.355-1.177-1.3-1.868-2.109-.254-.3-.512-.656-.9-1.084-.176-.193-.815-.873-1.207-.723-.757.288.415,1.436.6,1.688a4.212,4.212,0,0,1,.966,1.807c.022.359-.234,1.011-.242,1.626,0,.415.1.793.06,1.144a7.658,7.658,0,0,1-.422,1.145c-.141.442-.173.969-.3,1.264a2.277,2.277,0,0,1-1.569,1.205c-.5.021-.715-.385-1.2-.361-.741.035-.878.719-1.324,1.264.038.593.224.8.12,1.205-.162.639-1.052.75-1.024,1.386.025.589.812.7,1.2.964a10.1,10.1,0,0,1,1.99,1.808,3.379,3.379,0,0,1,.785,1.685c-.046.6-1.762,1.426-2.472,1.205-.674-.208-.443-.852-.6-1.446-.123-.456-.481-.652-.661-1.024-.1-.194-.052-.5-.183-.723-.364-.612-1-.277-1.748-.663-.491-.252-.348-.783-.541-1.266-.259-.647-1.351-.954-2.228-.782-.645.124-.845.666-1.446.782-.884-.523.18-1.815-.9-1.927-.831-.087-1.382,1.193-1.868,1.566-.33.252-.926.3-.963.663-.071.664.7.529,1.324.783.564.231.629.87,1.144.9.431.028.717-.445,1.145-.482a2.986,2.986,0,0,1,1.807.543c-.3.73-1.923,1.266-1.927,2.229,0,.558.646.654,1.145,1.024.42.312.973,1.193,1.565,1.808.256.264.67.439.786.6.278.4.234.884.54,1.145.052.33-.15.411-.12.723.15.432.815.351.965.783-.123,1.039.309,2.016-.543,2.409-.392,1.864-.835,3.321-2.107,4.338a12.25,12.25,0,0,1-4.039,1.625c-.357.116-.643.494-.962.6-.8.273-2.229.106-2.289,1.085-.032.482.612.773.663,1.264a1.558,1.558,0,0,1-1.085,1.568c-.35.038-1.1-.206-1.145-.845-.048-.719.891-1.012.965-1.446a1.4,1.4,0,0,0-1.566-1.444c-.8.059-2.605,1.656-2.65,2.53-.035.653,1.294,2.011,1.747,2.409,1.692,1.491,3.489,2.386,3.191,6.024-.422.922-1.5,1.119-2.348,1.626-.643.386-.965,1.586-2.05,1.688-.435-.15-.18-.829-.3-1.144-.165-.432-1.028-.645-1.566-1.085-.441-.362-.625-.933-.964-1.266a6.346,6.346,0,0,0-1.568-.783c-.324-.178-.576-.8-.9-.783-.531.022-.347.533-.481,1.384s-.745,1.482-.543,2.471c.085.406.59.733.842,1.144.418.684.477,1.48.9,1.868.282.257.764.313,1.084.541a7.49,7.49,0,0,1,1.988,1.99c.261.633.01,1.38.182,2.049.2.771,1.21,1.323.6,2.109a4.9,4.9,0,0,1-1.568-.785,4.81,4.81,0,0,1-1.747-1.807,5.449,5.449,0,0,1-.482-.723c-.21-.54-.164-1.151-.361-1.807a5.61,5.61,0,0,0-1.326-1.93c-.422-.4-1.173-.631-1.205-1.2-.043-.808.274-1.759.242-2.711-.007-.206-.147-.413-.179-.661-.064-.463.045-1.029-.063-1.447a6.744,6.744,0,0,0-.541-1.082,11.521,11.521,0,0,1-.481-1.147c-.245-.7-.519-2.039-1.085-2.109-.6-.073-1.2,1.133-1.987,1.147a1.1,1.1,0,0,1-1.024-.724c-.077-.369.189-.743.18-1.144-.024-.808-.6-1.12-1.025-1.688-.173-.229-.22-.552-.362-.723-.274-.327-.8-.509-1.145-.842a4.792,4.792,0,0,1-.843-1.085c-.232-.471-.308-1.084-.661-1.145s-.733.426-1.085.543a10.085,10.085,0,0,1-1.626.3c-1.21.084-2.191-.239-2.047,1.205-.189.647-.874.654-1.327.962a16.692,16.692,0,0,0-1.626,1.807c-.306.308-.748.5-1.024.784-.229.236-.3.617-.543.843-.643.608-1.607.659-2.047,1.506-.025,1,.474,1.759.361,2.71-.052.433-.376.818-.422,1.266-.038.383.158.8.062,1.205-.053.218-.3.334-.482.6-.168.242-.235.561-.359.723-.2.26-.537.442-.726.664-.306.362-.371.621-.663.663-1.32.19-1.646-2.321-2.228-3.374-.27-.484-.817-.92-1.085-1.506a21.283,21.283,0,0,0-.845-2.289,15.135,15.135,0,0,1-1.144-1.988c-.214-.573-.4-1.292-.6-1.928a10.282,10.282,0,0,1-.482-2.047c-.05-.782.15-1.264-.482-1.566-.582.136-.84.723-1.506.723-.643,0-2.369-1.115-1.865-2.11-.421-.6-1.482-.923-2.291-1.625-.463-.4-.881-1.363-1.686-1.446a4.319,4.319,0,0,0-.723.12c-.51.045-1.414-.046-1.988,0a12.7,12.7,0,0,1-2.531.12c-.589-.064-1.32-.178-1.927-.241a4.476,4.476,0,0,1-2.228-.663c-.267-.246-.375-1.036-.846-1.144-.558-.13-.866.3-1.383.421a3.5,3.5,0,0,1-2.773-.723c-.529-.351-1.011-.533-1.386-.783-.916-.612-1.08-2.457-2.471-2.471-.482,0-1.253.3-1.324.845-.048.383.457,1.095.663,1.386.675.952,1.917,1.31,2.289,2.59.25.1.758-.22,1.025.06.232.55,0,1.569.541,1.808,2.5.412,3.219-.959,4.338-1.928.65.425.436.8.663,1.264a2,2,0,0,0,1.024,1.026c.3.115.691.007,1.145.179.285.108,1.473,1.232,1.507,1.628a5.728,5.728,0,0,1-1.026,1.867c-.239.3-.608.453-.723.723-.085.208-.057.65-.12.783-.111.241-.652.554-.965.843a12.492,12.492,0,0,1-1.024.783c-.38.292-.615.694-1.024.845-.8.3-1.563.168-2.228.6-.436.282-.438.921-.963,1.263-.551.358-1.493.361-2.292.724-.512.234-.819.685-1.263.843-.18.064-.407.01-.6.061-.4.1-.77.386-1.145.48-.3.077-.613.039-.9.122-.927.268-1.777,1.211-2.71.661-.441-1.014-.512-2.292-1.025-3.192-.262-.46-.775-.6-.962-1.084-.026-.387.44-.281.481-.6-.154-.65-.769-.955-1.145-1.506-.183-.27-.268-.653-.481-.963-.719-1.045-2.135-1.589-2.411-2.892-.074-.355.013-.633-.059-.9a3.438,3.438,0,0,0-.724-1.264c-.229-.268-.7-.452-.963-.845-.175-.26-.213-.626-.362-.9a9.963,9.963,0,0,0-2.409-2.892c-.491.071-1.019.1-1.264.422a9.271,9.271,0,0,0,1.025,2.109,12.166,12.166,0,0,1,1.144,1.927c.094.252.077.579.18.843.379.955,1.57,1.249,1.807,2.351.161.737-.035,1.249.182,1.987.207.708,1.253,1.127,1.688,1.807a13.816,13.816,0,0,1,.6,1.868c.361.772,1.369,1.108,2.109,1.626a17.924,17.924,0,0,1,1.685,1.686c.323.292.766.345.845.664.1.407-.172.544-.242.9.463.481.913,1.372,1.688,1.446.317.031.719-.291,1.2-.362.245-.035.519.039.723,0,.322-.057.6-.344.966-.421.615-.133,1.327-.08,2.107-.182.736-.1,1.242-.717,1.807-.541.62.681.175,1.451,0,2.109-.062.231-.062.47-.119.663-.326,1.073-1.177,1.867-1.568,2.832-.12.3-.1.657-.239.963a12.194,12.194,0,0,1-2.11,2.71,11.968,11.968,0,0,1-1.205,1.205c-.432.355-.961.55-1.447.9a13.078,13.078,0,0,0-2.65,2.651c-.263.362-.389.779-.663,1.085-.393.438-1,.654-1.324,1.084a12.338,12.338,0,0,0-.723,1.566c-.331.689-1.024,1.155-.9,2.109.045.365.372.591.482.963a4.072,4.072,0,0,1-.062,1.867,5.958,5.958,0,0,0,1.205,2.289c.074,1.219-.1,2.4,0,3.434.063.657.319,1.141.06,1.747a5.644,5.644,0,0,1-1.626,1.807c-.569.368-1.439.463-2.049.906-.425.306-.776.846-1.205,1.205-.71.593-1.684,1.147-1.747,1.747a4.326,4.326,0,0,0,.361,1.2,5.228,5.228,0,0,1,.062,3.132c-.438,1.042-2.646.825-2.892,1.927-.076.336.147.6.12.965a8.167,8.167,0,0,1-.6,1.747c-.266.5-.871.722-1.263,1.145-.494.534-.743,1.308-1.267,1.867a18.04,18.04,0,0,1-2.59,2.229,7.566,7.566,0,0,1-3.493,1.266c-.731.052-1.516-.172-2.289-.06-.282.039-.59.3-.965.361-.217.035-.439-.038-.661,0-.379.064-.733.365-1.085.362a2.123,2.123,0,0,1-1.807-1.867c-.01-.357.306-.7.3-1.025-.006-.385-.477-.867-.843-1.566-.352-.674-.491-1.435-.843-1.986-.375-.587-.868-.866-1.144-1.327a8.743,8.743,0,0,1-.784-3.134c-.06-.362-.308-.755-.362-1.205a13.591,13.591,0,0,0-.059-1.626,8.136,8.136,0,0,0-.724-1.145c-.424-.78-.721-1.8-1.082-2.408-.34-.569-1.024-1.162-1.085-1.807a8.974,8.974,0,0,1,.12-1.688c.066-.422.379-.758.482-1.2.069-.3-.014-.638.059-.965.308-1.379,1.826-1.881,1.628-3.555-.085-.712-.587-1.061-.663-1.868-.035-.378.189-.709.18-1.085a5.629,5.629,0,0,0-.663-1.747,13.8,13.8,0,0,0-1.867-3.553c-.48-.551-1.11-.94-1.506-1.447a3.82,3.82,0,0,1-.724-1.506c-.006-.344.266-.558.362-.9.127-.445.136-1.285.3-1.988a5.224,5.224,0,0,0,.362-1.626,2.514,2.514,0,0,0-1.447-1.626c-.842-.208-1.706.27-2.77.182C332.09,377.07,332.159,375.553,330.837,375.36Zm33.313,21.567c.278-.442.629-1.686,0-1.988h-.12C363.762,395.439,363.475,396.647,364.151,396.927Zm-.843-12.591c.2-.417.681-.857.6-1.384-.173-1.161-2.344-.589-2.588.24-.166.558.1,1-.123,1.566.238.446.833.534,1.568.481C363.172,385.062,363.122,384.719,363.308,384.336Zm-3.675,6.207c.239-.443-.38-.733-.481-1.207-.12-.555.134-1.208-.364-1.506h-.179C358.173,388.818,358.791,390.447,359.633,390.543Zm41.086-59.824c-.227-.455-.878.134-.6.543C400.525,331.289,400.671,331.052,400.718,330.72Zm-14.035,2.471c.976-.189.011-1.749-.724-1.568C385,331.863,386.017,333.318,386.683,333.19Zm-4.458,7.771c.3-2.089-1.327-2.246-1.628-3.735.139.018.067-.173.182-.18.4-.19.993.3,1.2-.18.006-.713-.9-1.246-1.807-.9-.261-.179-.3-.586-.361-.965-.682-.406-2.373-1.294-2.349-2.109.02-.668.882-1.045,1.867-1.024.415-.315.148-1.282-.241-1.506a3.638,3.638,0,0,0-3.374.6c-.473.343-1,.579-1.266.783a1.551,1.551,0,0,0-.541.964c.038.373.572.591.783,1.085.109.253.085.572.182.783.263.582.937.956,1.445,1.444.359.345,1.366,1.095,1.386,1.506.02.344-.309.421-.42.784a4.514,4.514,0,0,0-.18,1.506c.131.661.817.684,1.443.963a5.506,5.506,0,0,0,1.868.783A2.548,2.548,0,0,0,382.225,340.961Zm-14.159-4.338c1.633-.3.888-1.674.06-2.167-.626-.375-1.377-.7-2.109-1.145-.424-.259-2.037-.747-2.047-1.264-.013-.566,1.2-.752.723-1.748-.825-.2-2.786.115-2.651,1.024.078.524.7.234.843.783-.59.21-1.309.761-1.927.664-.738-.116-.929-1.022-1.326-1.568-.573.018-.951-.555-1.626-.482-.709.077-1.084,1.106-1.446,1.628-.193.274-.5.415-.6.661-.063.15.006.387-.06.6-.206.67-.786.914-.724,1.506.057.522.624.757.664,1.205-.04.463-.782.222-.723.783,1.078.891,1.138-.419,1.688-.6.44-.147,1.306.122,1.865,0,.452-.1.808-.529,1.326-.722a3.7,3.7,0,0,1,1.145-.243c1.917-.078,3.155,1.169,4.82,1.205A12.975,12.975,0,0,0,368.066,336.623Zm-3.855,7.109c.033-.646-.246-1.134-.3-2.047-1.112-.671-1.942.622-3.071.481-.694-.087-1.191-.895-1.928-.783-.406.062-.607.586-1.025.661-.861.159-1.253-.688-2.167-.359a6.613,6.613,0,0,1-2.169-4.4c-.7-.923-1.776-.172-2.289.421-.318,0-.712-.175-.783.18-.236,1.115,1.575,1.233,1.566,1.988-.007.492-.708.446-1.024.782-.337.358-.113.677-.543.9-1.187.143-1.582-.508-1.566-1.566-.513-.779-1.161-1.347-1.626-1.988a2.444,2.444,0,0,1-.482-.964c-.042-.282.134-.639.062-.963-.131-.575-1.2-1.008-1.868-1.326a10.964,10.964,0,0,1-2.109-1.084c-.358-.3-.527-.825-.843-1.024-.27-.169-.6-.134-.845-.3-.33-.231-.275-.617-.722-.724-.228-.083-.578.225-.723.424-.294,1.314.776,1.4,1.264,1.986.336.4.5,1,.845,1.267.364.281.857.229,1.324.421.323.133.533.534.843.723.575.35,1.5.41,1.568,1.084-.358.243-1.169-.354-1.446.242-.071.392.31.593.3.963a1.251,1.251,0,0,1-1.267,1.145c-.059-.352.315-.642.3-1.025-.027-.766-1.568-1.937-2.349-2.288-.366-.166-.812-.175-1.145-.362a8.656,8.656,0,0,1-1.988-1.626c-.431-.571-.8-1.626-1.747-1.568-.386.025-.706.379-1.024.544a8.736,8.736,0,0,0-.9.48,2.092,2.092,0,0,1-.963.482c-.757.032-1.4-.561-2.047-.421a1.728,1.728,0,0,0-.664.482,8.342,8.342,0,0,1,.062.962c-.2.34-.779.319-1.205.544a8.283,8.283,0,0,0-1.687,1.506c-.327.323-.622.589-.664.843-.032.2.169.576.122.843a2.847,2.847,0,0,1-.963,1.144c-.214.147-.5.166-.723.3-.475.281-.688.647-1.085.723-1.053.2-2.966-.212-2.951.9.008.745,1.014.748,1.626.722a17.9,17.9,0,0,0,2.047.061,8.693,8.693,0,0,0,1.024-.6c.217-.1.44-.1.6-.18.361-.18.564-.475.845-.6a7.5,7.5,0,0,1,2.168-.482c.813-.046,1.661.084,2.711,0,.373-.029.744-.269,1.145-.3.656-.052,1.517.259,2.047.242.366-.013.776-.369,1.205-.362a1.231,1.231,0,0,1,1.084.663c.05.176-.1.457-.06.723.07.438.446.62.422.9-.032.378-.972.881-.845,1.326.084.285.758.583,1.085.783a3.9,3.9,0,0,0,1.326.541c.34.038.642-.094.964-.059a4.688,4.688,0,0,1,1.688.6c.566.4.487,1.036,1.144,1.264.28.1.785.042,1.144.122.878.19,1.528.917,2.169.842,1.01-.116.55-1.067.664-1.745.257-1.538,3.261-1.468,3.854-.424.44.117.825.018,1.326.182.289.094.5.41.783.482.21.052.516-.032.783,0,1.155.13,2.2.99,3.194.842.629-.092,1.087-.684,1.685-.723,1.154-.071,1.891.859,3.134.422.915-.322.712-1.27,1.025-2.229C363.766,344.691,364.186,344.236,364.211,343.733Zm64.942-20.544a2.155,2.155,0,0,0-.6-2.047c-.7.119-.193.843-.241,1.266-.069.6-.7,1.012-.663,1.626-.231.27-.626.377-.661.842.383.266.55-.207.842-.481C428.289,323.963,428.993,323.707,429.153,323.189Zm-15.784-20.9a2.312,2.312,0,0,0-1.326.482c-.227.12-.687.187-.541.543C412.082,303.239,413.231,302.977,413.369,302.285Zm-25.422,7.41a1.253,1.253,0,0,0,1.144-2.169c-.218-.21-.958-.292-1.263-.782-.369-.589-.317-1.376-1.205-1.205-.01.07.01.171-.062.18-.084,1.317,1.835,1.649,1.807,2.71C388.355,308.987,387.767,309.046,387.947,309.695Z" transform="translate(-196.674 -299.923)" fill="#e0e0e0"/>
        <path id="Path_75" data-name="Path 75" d="M350.935,305.4c-.175-.652,1.06-.547.845.062C351.585,305.642,351.058,305.627,350.935,305.4Z" transform="translate(-179.482 -297.917)" fill="#e0e0e0"/>
        <path id="Path_76" data-name="Path 76" d="M345.632,331.176c.028-.5,1.162-.681,1.384-.241C346.942,331.42,345.864,331.753,345.632,331.176Z" transform="translate(-181.588 -287.667)" fill="#e0e0e0"/>
        <path id="Path_77" data-name="Path 77" d="M330.855,328.791c.629-.509,2.026-.165,2.892-.182-.162.461-.187,1.059-.543,1.326A3.253,3.253,0,0,1,330.855,328.791Z" transform="translate(-187.475 -288.534)" fill="#e0e0e0"/>
        <path id="Path_78" data-name="Path 78" d="M327.727,326.549c.828-.864,1.7-.407,1.386,1.264-.2.5-1.059,1.165-1.446.422A6.35,6.35,0,0,0,327.727,326.549Z" transform="translate(-188.745 -289.486)" fill="#e0e0e0"/>
        <path id="Path_79" data-name="Path 79" d="M328.8,325.1a.8.8,0,0,1-.422.9C327.585,325.862,328.188,324.436,328.8,325.1Z" transform="translate(-188.613 -289.963)" fill="#e0e0e0"/>
        <path id="Path_80" data-name="Path 80" d="M320.922,317.849a1.019,1.019,0,0,0-.544-.963c-.2-.112-.5-.06-.723-.182-.586-.323-.8-1-1.144-1.144.045-.66-.18-1.138,0-1.568a3.572,3.572,0,0,1,1.326-1.144c.526-.185,1.077-.02,1.386-.421a.392.392,0,0,1,.3.059c0,.38-.322.443-.362.784.076.547,1.04.206,1.145.722-.092.564-.6.674-.6,1.085,0,.358.73,1.036,1.085,1.506.264.348.726.607.963.965.207.312.253.682.421.842.317.3,1.032.351,1.085.784.07.575-.715.8-.6,1.444-.826.65-2.207.313-3.555.482-.61.078-1.282.685-1.927.182-.15-.406.534-.46.6-.843-.046-.357-.5-.306-.6-.6.175-.468.72-.564.663-1.266C320.172,318.206,320.82,318.344,320.922,317.849Z" transform="translate(-192.421 -294.943)" fill="#e0e0e0"/>
        <path id="Path_81" data-name="Path 81" d="M317.654,315.334c.8-.492,2.209-.116,2.288.482.059.452-.428.516-.6,1.024-.157.46.031,1.008-.179,1.326-.185.275-.685.259-1.026.361-.757.227-2.221,1.117-2.83.12.088-.534.605-.64.783-1.084.01-.348-.361-.531-.3-.9.073-.454.415-.3.9-.482C317.043,316.043,317.2,315.613,317.654,315.334Z" transform="translate(-193.67 -293.874)" fill="#e0e0e0"/>
        <path id="Path_82" data-name="Path 82" d="M288.059,306c.127.536-1.584,1.236-1.748.544C286.183,305.995,287.623,305.3,288.059,306Z" transform="translate(-205.223 -297.618)" fill="#e0e0e0"/>
        <path id="Path_83" data-name="Path 83" d="M286.394,403.045h-.9A1.408,1.408,0,0,1,286.394,403.045Z" transform="translate(-205.547 -258.871)" fill="#e0e0e0"/>
        <path id="Path_84" data-name="Path 84" d="M284.2,302.88a.292.292,0,0,1,.362,0c-.06.141-.108.3-.362.241Z" transform="translate(-206.062 -298.77)" fill="#e0e0e0"/>
        <path id="Path_85" data-name="Path 85" d="M280.745,309.808c.013.331-1.2.881-1.327.241a.475.475,0,0,1,.242-.481C279.981,309.371,280.732,309.483,280.745,309.808Z" transform="translate(-207.969 -296.119)" fill="#e0e0e0"/>
        <path id="Path_86" data-name="Path 86" d="M262.561,349.8c-.032.09-.089.152-.12.242C261.8,350.015,262.378,349.2,262.561,349.8Z" transform="translate(-214.847 -280.142)" fill="#e0e0e0"/>
        <path id="Path_87" data-name="Path 87" d="M244.954,319.636c.422-.246.828.372.543.663C245.031,320.39,244.912,319.857,244.954,319.636Z" transform="translate(-221.699 -292.092)" fill="#e0e0e0"/>
        <path id="Path_88" data-name="Path 88" d="M317.242,329.013c-.281-.07-.666-.056-1.024-.12-.308-.055-.673-.145-.963-.18-.744-.088-1.549.127-1.988-.3a19.536,19.536,0,0,1,2.591-2.71c.273-.246.863-.413.722-.9-.512-.45-1.143.028-1.626.3a5.55,5.55,0,0,1-1.686.783c-1,.147-2.319-.292-3.132.241-.113.454.927.278.782.965a1.2,1.2,0,0,1-1.082-.182c-.28-.252-.12-.631-.3-.783a3.73,3.73,0,0,0-1.988-.241,1.4,1.4,0,0,0-1.266,1.024c.761.357,2.015-.366,2.291.543-.417.751-1.4,1.163-1.267,2.169a1.361,1.361,0,0,0,.845.964c.333.059.52-.271.843-.241.34.031.263.421.663.362.58-.249.9-1.063,1.566-1.025.8.968-.72,1.439-1.566,1.747-.965.35-2.218.536-2.952.845-.385.161-1.843,1.57-2.049.481-.147-.786.722-.559.9-1.205-.933-.18-1.8.4-2.651.724-1.211.459-3.262.748-3.555,2.109-.057.271.119.782-.059.962-.145.147-1.01.172-1.387.3-.58.2-1.087.625-1.446.723-.271.074-.671.053-.843.122-.478.185-.656.833-1.2,1.264-.227.176-.724.3-.9.481-.312.31-.352,1.088-.9,1.205-.35.031-.633-.263-.965-.06a7.753,7.753,0,0,1-.059,2.59,16.3,16.3,0,0,1-2.409,1.506c-.5.285-.958.358-1.568.664-.432.215-.826.73-1.324,1.024-1.151.677-2.539,1.478-2.53,3.193,0,.372.193.772.241,1.205.028.256-.031.5,0,.783.07.631.527,1.432,0,1.867a7.189,7.189,0,0,1-2.411-1.024c-.155-.6.313-1.085.242-1.626a1.966,1.966,0,0,0-1.025-1.266c-.366-.059-.7.331-1.084.3-.45-.035-.868-.656-1.446-.723-.847-.1-1.471.194-2.409.062-.909.485-1.175,1.349-2.289,1.264-.392-.029-.751-.329-1.2-.421a7.525,7.525,0,0,0-1.748-.241c-1.025.069-1.769.805-2.65,1.264-.777.4-1.878.908-2.109,1.748-.126.452-.02,1.088-.18,1.506a7.6,7.6,0,0,1-.482.782,6.063,6.063,0,0,0-.723,4.64,10.672,10.672,0,0,0,1.024,2.047,3.336,3.336,0,0,0,1.747.843,7.684,7.684,0,0,0,1.386-.3,13.5,13.5,0,0,0,1.568-.241c1.3-.417,1.045-2.179,2.348-2.772a6.193,6.193,0,0,1,2.229-.361,1.347,1.347,0,0,1,.422,1.144c-.034.308-.324.586-.481,1.024-.137.385-.166.835-.3,1.145-.179.407-.579.7-.723,1.085-.094.247-.042.557-.12.782-.138.4-.668.677-.422,1.085,1.289.512,2.851-.147,3.977.06.474.087,1.454.654,1.445,1.386-.006.548-.422.908-.482,1.506-.073.755-.387,1.678-.421,2.288-.053,1,1.467,2.725,2.53,2.711,1.145-.015,1.814-1.14,3.194-.541.457.2.941.94,1.446.9.418-.031,1.047-.761,1.326-1.266.338-.617.364-1.135.962-1.446.647-.334,1.161-.173,1.988-.481a4.782,4.782,0,0,0,1.024-.6c.292-.2.6-.727.965-.362.481.481-.589.751-.18,1.266.835.443,1.263-.824,1.868-.843a4.267,4.267,0,0,1,1.2.6c.47.309.631.743,1.144.843.331.066.861-.127,1.326-.062.615.088.98.617,1.446.6.568-.015.84-.632,1.326-.723a1.6,1.6,0,0,1,1.927.783c.526.092.544-.605,1.024-.359-.263.524.091.766.3,1.2.137.282.115.481.242.6.288.274.843.274,1.264.543a7.365,7.365,0,0,1,1.205,1.386,3.66,3.66,0,0,0,2.107,1.264c.663.042,1.2-.187,1.748-.12a5.639,5.639,0,0,1,2.893,1.447c.487.373.926.633,1.082,1.082.109.313.056.733.182,1.085.266.749,1.359,1.112.964,2.409.182.38.587.517,1.024.783.351.214.646.661,1.025.723a5.965,5.965,0,0,0,.722-.062,5.593,5.593,0,0,1,1.748.544,6.863,6.863,0,0,1,1.085.364c.306.2.345.9.723,1.081.246.12.794-.046,1.2,0,.647.077,1.524.471,2.109.484.355.007.649-.147.964-.122,1.475.115,2.312,1.878,3.736,2.409.44.166,1.141.05,1.444.182.534.231.984,1.865,1.024,2.588.122,2.19-1.559,2.892-2.53,4.339-.2.3-.315.782-.6,1.205-.578.85-1.221,1.026-1.144,2.59.022.429.24.847.24,1.326a8.708,8.708,0,0,1-.18,1.868c-.1.4-.429.722-.482,1.085s.108.65.06.964a5.716,5.716,0,0,1-.663,1.324c-.557,1.028-.678,2.237-1.808,2.65-.661.243-1.562.108-2.288.361-.292.1-.664.375-1.025.543-1.047.488-2.542,1.147-2.83,2.229-.257.963.358,1.733.18,2.832a9.582,9.582,0,0,1-.723,1.024c-.26.343-.389.744-.663,1.085-.362.453-.924.654-1.144,1.266-.074.207-.028.454-.12.783-.035.122-.257.309-.362.541-.1.214-.092.488-.182.664-.274.555-1.094,1.819-1.686,1.988-1.25.35-2.569-.531-3.433-.364.125.6.562.541.843.965a6.859,6.859,0,0,0,.481.843c.271.312.51.428.544.782a2.141,2.141,0,0,1-.9,1.748,5.507,5.507,0,0,1-1.748.482c-.445.074-1.6.078-1.807.364-.31.418.165,1.45-.059,1.865-.45.881-1.661-.024-2.291.241a1.154,1.154,0,0,0,.482,1.144c.379.222.954-.066,1.205.362-.124.6-.769.677-.9,1.265.018.576.194.726.122,1.084-.158.775-1.361.743-1.326,1.568.052,1.233,2.367.729,2.409,1.928.024.727-.663.734-.9,1.445-.129.379.074.467,0,.783-.1.426-.6.55-.6,1.024,0,.576.843,1.211,1.264,1.686a6.789,6.789,0,0,0,1.506,1.447c.846.467,2.106.362,2.471,1.2-.116.508-.6.643-1.085.783h-.12a1.407,1.407,0,0,0-.9,0h-.843c-.805-.372-1.784-.613-2.772-.963-.355-.126-.758-.428-1.144-.6-.29-.134-.617-.185-.843-.3-.52-.273-1.1-1.155-1.626-1.5-.319-.214-.818-.327-1.025-.545a8.786,8.786,0,0,1-.482-.9c-.194-.277-.551-.478-.783-.783a5.261,5.261,0,0,1-1.144-2.049c0-.482.46-.81.3-1.263-.147-.428-1.073-.336-1.2-.846-.081-.308.266-.826.24-1.263-.014-.255-.489-.6-.3-.966.215-.421.622.035.964-.18-.256-.87.02-2.27-.845-2.531-.443.375.453,1.216-.3,1.447-.729-.324-.559-1.284-.723-1.989a7.579,7.579,0,0,1-.359-1.386,7.571,7.571,0,0,0,.059-.84c-.129-.812-1.032-1.478-1.085-2.292-.024-.392.241-.724.3-1.144.043-.285-.039-.6,0-.9.055-.383.266-.736.3-1.085a9.478,9.478,0,0,0-.12-2.351c-.15-.695-.7-1.286-.783-2.046-.029-.275.091-.733.06-1.085-.028-.327-.208-.652-.24-1.025a6.885,6.885,0,0,1,.12-1.085c.064-.755-.147-1.6-.12-2.349.008-.221.124-.386.12-.6-.007-.622-.214-1.249-.242-1.868a21.4,21.4,0,0,0-.059-3.012,10.477,10.477,0,0,0-.6-2.528,7.885,7.885,0,0,0-2.229-1.87c-.421-.234-.926-.315-1.386-.541-.98-.481-2.882-1.5-3.313-2.47-.124-.281-.108-.653-.242-.965a12.645,12.645,0,0,0-1.205-1.748c-.744-1.137-1.344-2.562-2.109-3.735a14.919,14.919,0,0,0-1.144-1.747c-.247-.28-1.042-.541-1.144-.963a6.928,6.928,0,0,1-.482-1.747c.087-.577,1.207-1.042,1.205-1.566,0-.446-.6-.706-.723-1.084-.3-.922.179-1.463.543-2.23a9.033,9.033,0,0,1,.361-.843c.221-.331.67-.424.964-.783.165-.2.268-.62.482-.9.457-.608,1.2-.836,1.386-1.386a11.46,11.46,0,0,0,.059-3.433c-.1-.434-.508-.794-.661-1.205-.271-.727-.336-1.521-1.085-1.506-.461.008-.787.52-1.084.843-.071.428-.034.892-.482,1.024-.685.2-.948-.722-1.747-.964-.317-.1-.825-.091-1.024-.18-.583-.263-.772-1.116-1.386-1.447-.515-.276-.954-.18-1.266-.6a4.734,4.734,0,0,1-.06-1.205c-.66-.386-1.219-1.826-1.987-2.167-.51-.227-1.291-.206-1.928-.421a7.388,7.388,0,0,0-.845-.3,4.975,4.975,0,0,1-1.084-.242c-1.191-.592-1.835-2.509-3.313-2.468-.629.017-1.236.606-1.807.6a7.183,7.183,0,0,1-2.23-.784c-.74-.343-1.558-.53-2.167-.843-.494-.252-.835-.713-1.267-.9-.329-.145-.811-.172-1.082-.3a12.079,12.079,0,0,1-1.266-.9c-.454-.315-.947-.8-.965-1.2-.02-.471.433-.873.482-1.326.155-1.435-.9-2.467-1.568-3.314-.492-.629-1.07-1.163-1.565-1.747a4.245,4.245,0,0,0,0-.843,11.656,11.656,0,0,1-1.085-1.446c-.357-.491-1.054-1.015-1.144-1.565-.11-.677.257-1.273,0-1.93-.428-1.091-1.942-.6-1.748.845.055.4.615.931.783,1.326s.141.9.3,1.384c.155.464.622.864.783,1.386.256.825.248,1.714.482,2.229.207.459.969.892.541,1.446-.571.119-.789-.452-1.144-.783-.2-.185-.915-.534-1.024-.964-.091-.355.225-.832.12-1.266-.207-.85-1.923-.871-1.928-1.747,0-.55.717-.614.724-1.145,0-.582-.793-1.073-.965-1.566a9,9,0,0,1-.241-1.807,11.127,11.127,0,0,0-.122-1.748,2.835,2.835,0,0,0-1.144-1.205c-.529-.294-.947-.172-1.205-.6a4.957,4.957,0,0,1-.421-1.565c-.087-.724-.02-1.517-.062-2.289a11.665,11.665,0,0,1,0-2.349c.3-.583.842-.87,1.145-1.447.213-.4.242-.9.481-1.324a19.494,19.494,0,0,1,2.05-2.289,10.67,10.67,0,0,0,1.745-2.591,3.874,3.874,0,0,0,.482-1.506c-.078-.58-1.17-1.057-1.084-1.747.055-.428.663-.421.843-.843a4.236,4.236,0,0,0,.182-1.084,9.932,9.932,0,0,1-.182-1.808c.1-.529.888-.744.482-1.324s-1.123.31-1.566-.062c-.408-.343.083-.757.12-1.386.015-.252-.147-.537-.12-.723.036-.268.561-.722.421-.9-.326-.412-.691-1.458-1.386-1.807-.884-.445-1.84-.145-3.071-.362-.755-.133-1.113-.839-1.808-.782-.429.034-.675.524-1.266.782a10.521,10.521,0,0,1-1.927.3c-.575.133-.852.53-1.447.482-.495-.038-.5-.485-1.082-.541a9.24,9.24,0,0,0-1.025.18,13.95,13.95,0,0,1-3.555-.06,10.315,10.315,0,0,1-2.349-.9c-.716-.333-2.046-.743-1.988-1.267.036-.337,1.26-.7,1.747-.842a10.374,10.374,0,0,1,1.868-.664c.231-.014.536.144.843.123s.689-.308,1.085-.364c.84-.116,2.028.043,1.927-.783-.639-.5-3.246.375-3.314-.722-.041-.664.99-.864,1.749-1.025a11.645,11.645,0,0,1,2.348-.362c.688.035,1.593.805,1.988-.059.192-.614-.234-1.131-.362-1.628.512-.706,1.453-.618,2.169-.723a8.8,8.8,0,0,0,2.291-.6,8.85,8.85,0,0,1,2.288-.6c.818-.106,1.612-.414,2.351-.481a17.391,17.391,0,0,0,1.747-.12,6.864,6.864,0,0,1,1.628-.361c.379.017.7.294,1.082.361.358.062.768-.018,1.147.06.289.062.551.257.842.3.457.069.947-.064,1.386,0,.406.057.75.311,1.144.361.929.119,1.99-.049,2.892.122.343.063.652.232,1.025.3.352.064.74-.01,1.084.059.48.1.88.549,1.386.6a17.849,17.849,0,0,0,2.952-.482,16.926,16.926,0,0,0,2.169-.12,13.908,13.908,0,0,1,1.928-.421c.327-.014.6.1.9.062s.687-.418,1.024-.362c.449.071.369.639.845.783.524-.273,1.047.018,1.626,0A7.9,7.9,0,0,1,275.8,306c1.1.173,2.629,1.246,3.493.664.218-.148.166-.4.362-.784.266-.519.791-1.128.663-1.867-1.208.02-2.361.61-3.736.663-1.389-.871.372-1.41,1.387-1.807.836-.33,1.5-1.059,2.531-1.205a11.823,11.823,0,0,1,2.77.3c.583.067,1.168-.041,1.506.06.592.178.895.764,1.386.9.211.06.558.055.842.122.543.124,1.028.411,1.568,0,.424.076.474.529.9.6.4-.217.709-.765,1.326-.9.267-.06.548.046.842,0,.492-.078,1.147-.744,1.447-.12-.123.434-.78.5-1.145.843-.324.306-.824,1.007-.782,1.326.071.575.933.352.962,1.084-.127.422-.617.234-1.024.422-.371.172-.509.527-.9.6-1.095.207-2-.275-2.952-.241-.043.41.47.649.723.782a5.062,5.062,0,0,0,2.77.362c.621-.014,1.334.186,1.868-.182.338-.231.32-.74.6-1.024a2.319,2.319,0,0,1,1.626-.6c.274.046.659.372.663.6.01.548-.773.373-.783.965a1.772,1.772,0,0,0,1.928-.845c.052-.371-.439-.586-.422-.962.029-.632.887-.621.783-1.267-.414-.326-.845.07-1.266,0-.592-.1-1.124-.807-1.386-1.266.262-.324.81-.108,1.205-.059a3.182,3.182,0,0,1,2.409-.965c.406-.039.948-.2,1.145.18.1.572-.845.913-.663,1.568.811.2,1.077-.892,1.748-1.326a6.455,6.455,0,0,1,1.144-.482c.371-.141.78-.491,1.085-.481.333.008.392.282.722.421.3.124.685-.085.784.3-.7,1.211-3.3.515-3.977,1.747.151.826-.408,1.615.06,2.17.336.4,1.089.126,1.264.541.236.555-.73.555-.481,1.205.638.382,1.4-.364,1.987-.663.633-.32,1.433-.7,1.506-1.446-.317-.613-1.5-.138-1.685-.782-.1-.351.364-1.134.481-1.266a6.673,6.673,0,0,1,4.4-1.568c.3.028.6.21.9.242,1.036.106,2.26-.448,3.074,0,.653-.382,1.439.052,2.348-.062.7.414.509,1.295,1.568,1.688.288.106.646.031,1.024.12.28.067.583.4.9.543.456.207.807.159.9.481s-.331.519-.3.845c.26.214.042.537.18.842.262.559.916.517,1.566.784.456.187,1.429.761,1.386,1.2-.029.3-.914.822-1.205.965a4.913,4.913,0,0,1-1.565.543c-.569-.084-.791-1.236-1.566-1.205a.644.644,0,0,0-.664.663c-.013.791.885.822.9,1.506.025.818-.448.875-1.144,1.384a4.882,4.882,0,0,0-1.566-.541c-.385.457.632.622.3,1.205a4.946,4.946,0,0,1-2.588-.543,5.155,5.155,0,0,1-.9-.18c-.343-.2-.442-.784-.723-1.085a2.514,2.514,0,0,0-1.507-.843c-.744,0-1.821.927-2.409.06.408-1.38,2.339-.357,3.615-.843.474-.18.638-.682,1.025-.9.779-.445,2.044-.508,1.928-1.386-.06-.443-.678-.436-1.024-.663-.473-.308-.833-1.393-1.507-1.446-.347-.028-.6.266-.963.3-.779.074-1.646-.313-2.349,0-.327.187-.106.488-.362.843-.21.292-.706.375-.9.663-.231.34-.185.761-.482,1.025a6.9,6.9,0,0,1-2.168.722c-.28.1-.633.425-.9.424-.5,0-.712-.67-1.266-.424-.049.645.681.908,1.142,1.205a2.513,2.513,0,0,1,1.205,1.2c-.489,1.042-1.271-.055-2.047-.059-.856-.006-2.1,1.628-2.832.3.182-.7.955-.813,1.145-1.507-.852.145-1.593.861-2.591,1.085-.419.092-.829.07-1.205.179-.722.213-1.225.744-1.987,1.026-.3.109-.653.075-.964.179a16,16,0,0,0-2.349,1.085,13.6,13.6,0,0,0-2.109,1.265c-.257.222-.926,1.014-.9,1.264.031.359.706.478.723.845-.015.221-.391.7-.122,1.024.247.294.743.056,1.266.12.92.115,1.523.874,2.228,1.266a6.242,6.242,0,0,0,1.93.723c.828.1,1.754-.242,1.867.421.109.638-.779.866-.843,1.266.446.589-.3.871-.3,1.386a1.3,1.3,0,0,0,.962,1.084A2.158,2.158,0,0,0,297,323.41c.3-.723.172-1.7.723-2.228,2.807.077,5.181-1.275,5-4.157a3.944,3.944,0,0,1-.12-.963c.088-.466.888-.857.782-1.446.787-.242.754-1.5,1.568-1.686.681-.154,1.453.482,2.348.421.292-.02.671-.281.965-.241.589.082.944.808,1.386,1.144.392.3.8.2.9.6-.116.675-.592.692-.543,1.324a1.3,1.3,0,0,0,.9,1.026,2.885,2.885,0,0,0,1.506-.362c.807-.382,1.5-1.533,2.17-1.386.53.116.945,1.8,1.024,2.409.084.652-.088,1.148-.06,1.748.078,1.017,1.358.913,1.987,1.445.19.162.266.575.424.785.3.408.675.408.722.842.113,1.042-.942,1.13-.843,2.29-.218.45-.768.422-.723,1.024.07.951,1.436.222,1.807.965.2.4-.034.7-.18,1.264.467.557.464,1.445-.361,1.446C317.887,329.676,317.748,329.138,317.242,329.013Zm-65.122-1.566c.285-.291-.12-.909-.543-.663C251.535,327.005,251.654,327.538,252.12,327.447Zm42.051,5.482c-.252-.245-1.07-.175-1.628-.12-.394.039-.863.123-.9.422C292.266,333.518,293.973,333.725,294.17,332.929Zm-3.134-1.024a.739.739,0,0,0-.241-1.266c-.2-.052-.461.145-.784.122-.34-.027-.681-.338-.962-.362a1.453,1.453,0,0,0-1.145.421c-.018.361.264.42.24.784-.585.418-.274,1.818.3,1.867.611.055.927-1.547,1.747-1.686C290.49,331.733,290.642,331.954,291.036,331.905Zm-.843,2.409c-.857-.3-1.647.207-2.349.3-.418.056-1.18-.085-1.084.541.077.51.867.326,1.324.18A5.727,5.727,0,0,0,290.193,334.315Zm-2.65-4.578c1.2-.512-.238-2.086-.783-2.229-.977-.256-2.366.716-3.495,1.024-.636.173-1.242.189-1.386.724.57.943,1.7-.207,2.53-.062.421.076.667.652,1.084.723A12.524,12.524,0,0,0,287.543,329.736Zm-.845.965c-.249-.294-1.6.034-1.988.3-.266.185-.447.632-.722.965s-.6.607-.843.9c-.218.267-1.438,2.028-.482,2.229.407.084,1.246-.761,1.326-1.085a3.61,3.61,0,0,1,1.625-2.409C286.11,331.3,286.619,331.343,286.7,330.7Zm-7.53-6.747c.673-.025,1.127-2.011,0-1.748C278.413,322.382,278.232,323.988,279.168,323.954Zm-3.253,45.182c.031-.09.088-.152.12-.242C275.853,368.294,275.275,369.113,275.916,369.136Zm-25.483-50.423c.014-.115-.068-.134-.06-.242-.183,0-.4-.035-.362.18A.251.251,0,0,0,250.433,318.713Zm63.316-9.46c.3.036.464-.057.421-.359C313.9,308.7,313.511,308.952,313.749,309.253Zm-6.928-5.9a.292.292,0,0,0-.362,0v.241C306.714,303.645,306.761,303.492,306.821,303.35Zm-22.893,4.638c.2-.129.508-.3.361-.6-.666-.312-1.79-.074-2.77-.18-.557-.787-1.488-.908-1.568.362C281.073,308.478,282.771,307.143,283.929,307.989Zm-10.784,6.206c.343-.119.817-.059.9-.424-.281-.225-.571-.529-.9-.541-.436-.015-.646.371-1.085.6-.509.27-1.215.334-1.264.783A4.39,4.39,0,0,0,273.144,314.195Zm-.3-4.339c.386-.066.782.108,1.026-.24-.288-1.326-2.123-.516-3.194-.421a3.05,3.05,0,0,0-.6,1.2C270.9,310.609,271.905,310.015,272.842,309.856Zm18.074,61.569c.475-.077.337-1.17-.241-.9C290.239,370.723,290.466,371.5,290.916,371.425Z" transform="translate(-228.322 -299.24)" fill="#e0e0e0"/>
        <path id="Path_89" data-name="Path 89" d="M244.2,313.676c-.008.108.074.127.06.242a.251.251,0,0,1-.422-.062C243.8,313.641,244.012,313.674,244.2,313.676Z" transform="translate(-222.144 -294.445)" fill="#e0e0e0"/>
        <path id="Path_90" data-name="Path 90" d="M243.125,316.294a1.285,1.285,0,0,1-.845.723,1.534,1.534,0,0,1-.3-.3C242.005,316.145,242.82,315.724,243.125,316.294Z" transform="translate(-222.881 -293.509)" fill="#e0e0e0"/>
      </g>
    </g>
    <path id="Path_95" data-name="Path 95" d="M269.158,313.6c0,2.127-3.849,5.771-3.849,5.771s-3.849-3.644-3.849-5.771a3.849,3.849,0,1,1,7.7,0Z" transform="translate(-186.157 -236.547)" fill="red"/>
    <path id="Path_96" data-name="Path 96" d="M247.668,308.394c0,2.125-3.849,5.77-3.849,5.77s-3.849-3.644-3.849-5.77a3.849,3.849,0,0,1,7.7,0Z" transform="translate(-194.401 -238.545)" fill="#1ddba9"/>
    <path id="Path_463" data-name="Path 463" d="M269.158,313.6c0,2.127-3.849,5.771-3.849,5.771s-3.849-3.644-3.849-5.771a3.849,3.849,0,1,1,7.7,0Z" transform="translate(3.843 -236.547)" fill="#f99600"/>
    <path id="Path_464" data-name="Path 464" d="M247.668,308.394c0,2.125-3.849,5.77-3.849,5.77s-3.849-3.644-3.849-5.77a3.849,3.849,0,0,1,7.7,0Z" transform="translate(-4.401 -208.545)" fill="#3dd598"/>
    <path id="Path_465" data-name="Path 465" d="M269.158,313.6c0,2.127-3.849,5.771-3.849,5.771s-3.849-3.644-3.849-5.771a3.849,3.849,0,1,1,7.7,0Z" transform="translate(-87.157 -186.547)" fill="red"/>
    <path id="Path_466" data-name="Path 466" d="M247.668,308.394c0,2.125-3.849,5.77-3.849,5.77s-3.849-3.644-3.849-5.77a3.849,3.849,0,0,1,7.7,0Z" transform="translate(-139.401 -158.545)" fill="#3dd598"/>
    <path id="Path_467" data-name="Path 467" d="M269.158,313.6c0,2.127-3.849,5.771-3.849,5.771s-3.849-3.644-3.849-5.771a3.849,3.849,0,1,1,7.7,0Z" transform="translate(35.843 -149.547)" fill="#f99600"/>
  </g>
</svg>
