<svg xmlns="http://www.w3.org/2000/svg" width="186.834" height="95.713" viewBox="0 0 186.834 95.713">
  <g id="Group_79" data-name="Group 79" transform="translate(-554.191 -288.181)">
    <path id="Path_487" data-name="Path 487" d="M554.191,381.6a93.417,93.417,0,0,1,186.834,0H700.414a52.8,52.8,0,1,0-105.607,0Z" fill="#3dd598" fill-rule="evenodd"/>
    <path id="Path_488" data-name="Path 488" d="M652.518,383.629a6.792,6.792,0,0,0,4.656-8.379l-31.106-84.6L644.107,379h0a6.785,6.785,0,0,0,8.411,4.625Z" fill="#ff9446" fill-rule="evenodd"/>
    <path id="Path_489" data-name="Path 489" d="M700.414,381.6a52.8,52.8,0,0,0-52.807-52.8,51.723,51.723,0,0,0-7.345.5l-14.194-38.641A93.6,93.6,0,0,1,741.025,381.6Z" fill="#0058ff" fill-rule="evenodd"/>
  </g>
</svg>
