<svg xmlns="http://www.w3.org/2000/svg" width="20" height="20" viewBox="0 0 20 20">
  <g id="Path_3226" data-name="Path 3226" fill="#f99600">
    <path d="M 10 19.5 C 4.761680126190186 19.5 0.5 15.23832035064697 0.5 10 C 0.5 4.761680126190186 4.761680126190186 0.5 10 0.5 C 15.23832035064697 0.5 19.5 4.761680126190186 19.5 10 C 19.5 15.23832035064697 15.23832035064697 19.5 10 19.5 Z" stroke="none"/>
    <path d="M 10 1 C 5.037380218505859 1 1 5.037380218505859 1 10 C 1 14.96261978149414 5.037380218505859 19 10 19 C 14.96261978149414 19 19 14.96261978149414 19 10 C 19 5.037380218505859 14.96261978149414 1 10 1 M 10 0 C 15.52285003662109 0 20 4.477149963378906 20 10 C 20 15.52285003662109 15.52285003662109 20 10 20 C 4.477149963378906 20 0 15.52285003662109 0 10 C 0 4.477149963378906 4.477149963378906 0 10 0 Z" stroke="none" fill="#707070"/>
  </g>
</svg>
