<svg xmlns="http://www.w3.org/2000/svg" width="65" height="65" viewBox="0 0 65 65">
  <g id="Group_181" data-name="Group 181" transform="translate(-214 -14)">
    <circle id="Ellipse_17" data-name="Ellipse 17" cx="32.5" cy="32.5" r="32.5" transform="translate(214 14)" fill="#fff"/>
    <g id="Solid" transform="translate(198.37 -20)">
      <path id="Path_538" data-name="Path 538" d="M202.074,48h-2.519v3.148a.63.63,0,0,1-.63.63h-3.778a.63.63,0,0,1-.63-.63V48H192v8.815h10.074Zm-1.259,7.556h-1.259V54.3h1.259Z" transform="translate(-147.407)" fill="#121212"/>
      <path id="Path_539" data-name="Path 539" d="M240,176h2.519v2.519H240Z" transform="translate(-191.63 -117.926)" fill="#121212"/>
      <path id="Path_540" data-name="Path 540" d="M240,48h2.519v2.519H240Z" transform="translate(-191.63)" fill="#121212"/>
      <path id="Path_541" data-name="Path 541" d="M202.074,304h-2.519v3.148a.63.63,0,0,1-.63.63h-3.778a.63.63,0,0,1-.63-.63V304H192v8.815h10.074Zm-1.259,7.556h-1.259V310.3h1.259Z" transform="translate(-147.407 -235.852)" fill="#121212"/>
      <path id="Path_542" data-name="Path 542" d="M202.074,176h-2.519v3.148a.63.63,0,0,1-.63.63h-3.778a.63.63,0,0,1-.63-.63V176H192v8.815h10.074Zm-1.259,7.556h-1.259V182.3h1.259Z" transform="translate(-147.407 -117.926)" fill="#121212"/>
      <path id="Path_543" data-name="Path 543" d="M240,304h2.519v2.518H240Z" transform="translate(-191.63 -235.852)" fill="#121212"/>
      <path id="Path_544" data-name="Path 544" d="M346.074,304h-2.519v3.148a.63.63,0,0,1-.63.63h-3.778a.63.63,0,0,1-.63-.63V304H336v8.815h10.074Zm-1.259,7.556h-1.259V310.3h1.259Z" transform="translate(-280.074 -235.852)" fill="#121212"/>
      <path id="Path_545" data-name="Path 545" d="M384,48h2.518v2.519H384Z" transform="translate(-324.296)" fill="#121212"/>
      <path id="Path_546" data-name="Path 546" d="M384,176h2.518v2.519H384Z" transform="translate(-324.296 -117.926)" fill="#121212"/>
      <path id="Path_547" data-name="Path 547" d="M346.074,48h-2.519v3.148a.63.63,0,0,1-.63.63h-3.778a.63.63,0,0,1-.63-.63V48H336v8.815h10.074Zm-1.259,7.556h-1.259V54.3h1.259Z" transform="translate(-280.074)" fill="#121212"/>
      <path id="Path_548" data-name="Path 548" d="M346.074,176h-2.519v3.148a.63.63,0,0,1-.63.63h-3.778a.63.63,0,0,1-.63-.63V176H336v8.815h10.074Zm-1.259,7.556h-1.259V182.3h1.259Z" transform="translate(-280.074 -117.926)" fill="#121212"/>
      <path id="Path_549" data-name="Path 549" d="M384,304h2.518v2.518H384Z" transform="translate(-324.296 -235.852)" fill="#121212"/>
      <path id="Path_550" data-name="Path 550" d="M58.074,176H55.556v3.148a.63.63,0,0,1-.63.63H51.148a.63.63,0,0,1-.63-.63V176H48v8.815H58.074Zm-1.259,7.556H55.556V182.3h1.259Z" transform="translate(-14.741 -117.926)" fill="#121212"/>
      <path id="Path_551" data-name="Path 551" d="M64,464h2.519v1.259H64Z" transform="translate(-29.481 -383.259)" fill="#121212"/>
      <path id="Path_552" data-name="Path 552" d="M58.074,304H55.556v3.148a.63.63,0,0,1-.63.63H51.148a.63.63,0,0,1-.63-.63V304H48v8.815H58.074Zm-1.259,7.556H55.556V310.3h1.259Z" transform="translate(-14.741 -235.852)" fill="#121212"/>
      <path id="Path_553" data-name="Path 553" d="M96,304h2.519v2.518H96Z" transform="translate(-58.963 -235.852)" fill="#121212"/>
      <path id="Path_554" data-name="Path 554" d="M240,464h2.519v1.259H240Z" transform="translate(-191.63 -383.259)" fill="#121212"/>
      <path id="Path_555" data-name="Path 555" d="M416,464h2.518v1.259H416Z" transform="translate(-353.778 -383.259)" fill="#121212"/>
      <path id="Path_556" data-name="Path 556" d="M32,432H67.259v1.259H32Z" transform="translate(0 -353.778)" fill="#121212"/>
      <path id="Path_557" data-name="Path 557" d="M96,48h2.519v2.519H96Z" transform="translate(-58.963)" fill="#121212"/>
      <path id="Path_558" data-name="Path 558" d="M58.074,48H55.556v3.148a.63.63,0,0,1-.63.63H51.148a.63.63,0,0,1-.63-.63V48H48v8.815H58.074Zm-1.259,7.556H55.556V54.3h1.259Z" transform="translate(-14.741)" fill="#121212"/>
      <path id="Path_559" data-name="Path 559" d="M96,176h2.519v2.519H96Z" transform="translate(-58.963 -117.926)" fill="#121212"/>
    </g>
  </g>
</svg>
